<?xml version="1.0" encoding="utf-8"?>
<!-- Generator: Adobe Illustrator 21.1.0, SVG Export Plug-In . SVG Version: 6.00 Build 0)  -->
<svg version="1.1" id="Layer_1" xmlns="http://www.w3.org/2000/svg" xmlns:xlink="http://www.w3.org/1999/xlink" x="0px" y="0px"
	 viewBox="0 0 512 512" style="enable-background:new 0 0 512 512;" xml:space="preserve">
<style type="text/css">
	.st0{fill:#231F20;}
</style>
<path id="Group_351" transform="translate(9702 3972)" class="st0" d="M-9294.4-3780.8v-53.2c0-75.8-68-137.4-151.7-137.4
	c-83.7,0-151.8,61.7-151.8,137.5c0,5.2,4.2,9.4,9.4,9.5c0,0,0,0,0.1,0c5.2,0,9.5-4.2,9.5-9.5c0-65.3,59.5-118.5,132.7-118.5
	c73.1,0,132.8,53.1,132.8,118.5v52.2h-272.7c-37.8,0-68.5,30.7-68.6,68.5v185.3c0,37.9,30.7,68.5,68.6,68.6h280.1
	c37.9,0,68.5-30.7,68.6-68.6v-185.3C-9237.5-3746.6-9261.5-3775.1-9294.4-3780.8z M-9256.5-3528c0,27.4-22.2,49.5-49.6,49.6h-280.1
	c-27.4,0-49.5-22.2-49.6-49.6v-185.3c0-27.4,22.2-49.5,49.6-49.6h280.1c27.4,0,49.5,22.2,49.6,49.6V-3528z M-9446.1-3706
	c-20.9,0-37.9,17-37.9,37.9v56.8c0,20.9,17,37.9,37.9,37.9s37.9-17,37.9-37.9v-56.8C-9408.2-3689-9425.1-3706-9446.1-3706
	C-9446.1-3706-9446.1-3706-9446.1-3706z M-9427.1-3611.2c0,10.5-8.5,18.9-18.9,18.9c-10.5,0-18.9-8.5-18.9-18.9v-56.8
	c0-10.5,8.5-18.9,18.9-18.9c10.5,0,18.9,8.5,18.9,18.9l0,0V-3611.2z"/>
</svg>
