<?xml version="1.0" encoding="utf-8"?>
<!-- Generator: Adobe Illustrator 21.1.0, SVG Export Plug-In . SVG Version: 6.00 Build 0)  -->
<svg version="1.1" id="Layer_1" xmlns="http://www.w3.org/2000/svg" xmlns:xlink="http://www.w3.org/1999/xlink" x="0px" y="0px"
	 viewBox="0 0 512 512" style="enable-background:new 0 0 512 512;" xml:space="preserve">
<style type="text/css">
	.st0{fill:#231F20;}
</style>
<path id="Group_457" transform="translate(-4285 5422)" class="st0" d="M4793.9-5004.3c-1.4,6.7-4.1,13.1-7.9,18.9
	c-7.8,10.7-20.4,16.9-33.6,16.7c-10.2,0.1-20.4,0-30.6,0H4332c-16.6,1.1-32.2-7.9-39.5-22.8c-3.2-6.3-4.7-13.4-4.4-20.5v-242.5
	c-1.2-22.6,16.2-41.8,38.7-43c1.3-0.1,2.7-0.1,4,0c7.8-0.1,7.8-0.1,7.8-7.8c0-9.8,0.1-19.8-0.1-29.6c-0.1-3.8,1.2-4.7,4.8-4.7
	c13.7,0.3,27.3,0.3,41,0c3.8,0,5.2,0.9,5.1,4.9c-0.3,11,0,22.1-0.1,33.1c0,3.2,1,3.9,4.2,4.2c4.4,1,8.7-1.8,9.6-6.1c0,0,0,0,0,0
	c9.5-24.7,19.5-49.2,29.3-73.9c0.7-2.9,3.5-4.8,6.4-4.4c68.2,0.1,136.4,0.1,204.5,0c3.1-0.4,6,1.7,6.7,4.7
	c9.8,25.2,20.1,50.4,30.1,75.6c0.7,2.7,3.3,4.4,6.1,4c21.6-0.1,43.1-0.1,64.7-0.1c16.6-0.9,32.2,8.3,39.3,23.3
	c2,3.8,2.3,8.2,3.9,12.1C4793.9-5176.2,4793.9-5090.3,4793.9-5004.3z M4541.1-4985.5h208c13.5,2,26.1-7.2,28.1-20.7
	c0.4-2.4,0.4-4.9,0-7.4v-239.2c2-13.4-7.2-25.9-20.6-27.9c-2.4-0.4-4.8-0.4-7.2,0c-24.6,0-49-0.1-73.6,0.1c-3.4,0.6-6.7-1.6-7.5-4.9
	c-9.8-25.3-20.1-50.4-30-75.6c-0.6-2.5-3-4.2-5.6-3.8c-60.9,0.1-121.8,0.1-182.7,0c-2.6-0.4-5,1.3-5.6,3.8
	c-9.8,25.2-20.3,50.4-30,75.6c-0.9,3.3-4.1,5.5-7.5,4.9c-24.8-0.2-49.6-0.2-74.3-0.1c-3.5-0.1-6.9,0.2-10.2,1.1
	c-11,3.3-18.1,13.9-17,25.3v240.6c-2,13.5,7.2,26.1,20.7,28.1c2.4,0.4,4.9,0.4,7.4,0L4541.1-4985.5z M4372.4-5310
	c0-13.1,0-13-12.6-12.8c-3.1,0-4.4,0.7-4.3,4.1c0.2,5.6,0.2,11.1,0,16.7c-0.1,3.5,1,4.4,4.4,4.4
	C4372.3-5297.4,4372.3-5297.3,4372.4-5310L4372.4-5310z M4541-5002.3c-83.8,0-151.7-68-151.7-151.8c0-83.8,68-151.7,151.8-151.7
	c83.7,0,151.6,67.8,151.7,151.6C4692.5-5070.5,4624.7-5002.7,4541-5002.3z M4541.1-5019.2c74.5,0,134.9-60.4,134.9-134.9
	c0-74.5-60.4-134.9-134.9-134.9c-74.5,0-134.9,60.4-134.9,134.9c0,0.1,0,0.2,0,0.3C4406.7-5079.5,4466.9-5019.5,4541.1-5019.2
	L4541.1-5019.2z M4692.9-5230.2c0-18.6,15.1-33.7,33.7-33.7s33.7,15.1,33.7,33.7c-0.2,18.7-15.3,33.7-34,33.8
	C4707.8-5196.6,4692.9-5211.7,4692.9-5230.2z M4709.8-5230.2c-0.2,9.3,7.1,17.1,16.4,17.3s17.1-7.1,17.3-16.4s-7.1-17.1-16.4-17.3
	c-0.2,0-0.4,0-0.6,0c-9-0.2-16.5,7-16.7,16C4709.8-5230.5,4709.8-5230.4,4709.8-5230.2z M4541.2-5053
	c-55.9,0.2-101.3-45-101.5-100.9c-0.2-55.9,45-101.3,100.9-101.5c55.9-0.2,101.3,45,101.5,100.9
	C4642.2-5098.7,4597.1-5053.3,4541.2-5053z M4541.1-5069.9c46.6,0,84.3-37.8,84.3-84.3s-37.8-84.3-84.3-84.3s-84.3,37.8-84.3,84.3
	c0,0.1,0,0.2,0,0.4C4457-5107.4,4494.7-5069.9,4541.1-5069.9L4541.1-5069.9z"/>
</svg>
