<?xml version="1.0" encoding="utf-8"?>
<!-- Generator: Adobe Illustrator 21.1.0, SVG Export Plug-In . SVG Version: 6.00 Build 0)  -->
<svg version="1.1" id="Layer_1" xmlns="http://www.w3.org/2000/svg" xmlns:xlink="http://www.w3.org/1999/xlink" x="0px" y="0px"
	 viewBox="0 0 512 512" style="enable-background:new 0 0 512 512;" xml:space="preserve">
<g id="Group_352" transform="translate(9702.045 3568)">
	<path id="Path_740" d="M-9446.1-3056h-243.4c-9.6,0-12.5-2.8-12.5-12.7v-486.7c0-1.4-0.1-2.6,0-4c0.3-4.8,4.3-8.5,9.1-8.6
		c4.8-0.1,8.8,3.7,9,8.5c0.3,4.6,0.1,9.1,0.1,13.7c0,154.8,0,309.7-0.1,464.5c0,5.7,1.3,7.5,7.1,7.1c7.8-0.5,15.6-0.5,23.4,0
		c4.8,0.2,6.4-0.9,6.3-6.2c-0.2-44-0.1-88-0.1-132.1v-43.4c-0.9-10,6.6-18.8,16.5-19.6c1-0.1,2-0.1,3,0h52c10-1,19,6.4,19.9,16.4
		c0.1,1.2,0.1,2.3,0,3.5c0,58.5,0.1,116.9-0.1,175.4c0,4.8,1.1,6.1,5.9,5.9c12.5-0.3,12.5-0.1,12.5-12.5v-313.1
		c0-15.3,6.6-21.9,21.8-21.9h49.1c10.2-1.1,19.3,6.3,20.4,16.4c0.1,1.4,0.1,2.8,0,4.2v318.8c0,8,0,8,7.7,8c10.6,0,10.6,0,10.6-10.7
		v-242.3c-1.5-10.2,5.5-19.7,15.7-21.3c1.9-0.3,3.8-0.3,5.6,0h49.1c10.2-1.3,19.5,5.8,20.9,16c0.2,1.6,0.2,3.1,0,4.7
		c0,82,0.1,164.1-0.1,246.3c0,5.7,1,7.8,7.2,7.5c11.2-0.6,11.1-0.1,11.1-11.4v-389.1c-1-10.1,6.3-19.1,16.4-20.1
		c1.3-0.1,2.5-0.1,3.8,0h50.9c10.1-1.3,19.3,5.8,20.6,15.9c0.2,1.5,0.2,3,0,4.5v392.5c0,7.4,0,7.4,7.7,7.4h17.1
		c7.5,0,11.9,3.4,11.8,9.4c-0.1,5.7-4.3,8.9-11.5,8.9L-9446.1-3056L-9446.1-3056z M-9299.7-3276.1c0,65.3,0,130.5-0.1,195.9
		c0,4.8,1.1,6.1,5.9,5.9c14.3-0.3,28.6-0.3,42.9,0c4.8,0.1,6.4-0.9,6.3-6.2c-0.2-50.5-0.1-100.9-0.1-151.4c0-79.8,0-159.5,0.1-239.3
		c0-4.5-1.1-5.7-5.6-5.6c-14.3,0.3-28.6,0.3-42.9,0c-5-0.1-6.6,1-6.6,6.4C-9299.6-3405.6-9299.7-3340.8-9299.7-3276.1z
		 M-9464.3-3239c0-52.9-0.1-105.8,0.1-158.7c0-4.9-1.4-5.9-6.1-5.8c-14.5,0.3-28.9,0.3-43.4,0c-4.5-0.1-5.7,1.1-5.6,5.6
		c0.2,33.9,0.1,67.8,0.1,101.7c0,72.1,0,144.3-0.1,216.4c0,4.7,1.4,5.6,5.7,5.5c14.5-0.2,28.9-0.3,43.4,0c4.8,0.1,5.9-1.1,5.9-5.9
		C-9464.4-3133.1-9464.3-3186.1-9464.3-3239z M-9354.6-3202.5v-122.8c0-2.5,0.9-5.3-3.5-5.3c-16,0.2-32,0.1-48,0
		c-2.4,0-3.4,0.8-3.3,3.3c0.1,4.3,0,8.3,0,12.6c0,78.3,0,156.5-0.1,234.7c0,4.6,1.4,5.6,5.7,5.6c14.5-0.2,28.9-0.3,43.4,0
		c4.7,0.1,5.9-1.1,5.9-5.9C-9354.7-3121-9354.6-3161.6-9354.6-3202.5z M-9574-3165.5c0-28.9-0.1-57.8,0.1-86.8c0-4-1-5.1-5-5
		c-15.1,0.2-30.1,0.2-45.1,0c-3.5,0-4.9,0.8-4.9,4.7c0.1,57.8,0.1,115.7,0,173.5c0,3.8,1,4.8,4.8,4.8c14.9-0.2,29.7-0.2,44.6,0
		c4.3,0.1,5.7-0.9,5.7-5.5C-9574.1-3108.4-9574-3137-9574-3165.5L-9574-3165.5z"/>
</g>
</svg>
