<?xml version="1.0" encoding="utf-8"?>
<!-- Generator: Adobe Illustrator 21.1.0, SVG Export Plug-In . SVG Version: 6.00 Build 0)  -->
<svg version="1.1" id="Layer_1" xmlns="http://www.w3.org/2000/svg" xmlns:xlink="http://www.w3.org/1999/xlink" x="0px" y="0px"
	 viewBox="0 0 512 512" style="enable-background:new 0 0 512 512;" xml:space="preserve">
<style type="text/css">
	.st0{fill:#231F20;}
</style>
<path id="Group_229" transform="translate(3199.002 3981.951)" class="st0" d="M-2837.6-3470c2.5-7.2,4.8-14.1,7.2-20.9
	c3.6-10.4,6-21.1,7.2-32c0.9-14.6-1.8-29.2-8-42.5c-6.1-14-12.9-27.7-20.5-40.9c-4.8-8.9-9.2-18.1-13.1-27.3
	c-6.4-16.8-7.8-35.1-3.9-52.6c4.5-28.6,10.6-56.9,14.7-85.6c5.6-35,7.8-70.4,6.6-105.8c-1.8-35.7-13.6-70.2-34.1-99.5
	c-0.8-1.1-1.6-2.3-3-4.3c5.8,0.3,11.6,0.3,17.3-0.2c7.8-1.5,15.5,3,18,10.5c19.1,36.5,28.1,77.4,26.2,118.6
	c-1.4,40.1-5.8,80.1-13.1,119.5c-3.3,18.5-6.7,36.7-9.7,55.2c-2.4,15.2,0.1,30.7,7.2,44.4c8.5,17.5,18.6,34.4,26.7,52.2
	c8.7,17.1,13.1,36.1,13,55.3c-1.5,18.7-5.7,37-12.7,54.4c-0.2,1.1-1.3,1.9-2.5,1.7L-2837.6-3470z M-3038.9-3737.8
	c0-30.2-0.6-60.3,0.2-90.3c-0.3-44.9,13.5-88.7,39.5-125.3c4.4-5.9,9.4-11.6,14.1-17.2c1.9-2.2,4.4-4.1,5-6.9c0.9-3.9,3-4.4,6.4-4.3
	c5.2,0.3,10.3,0.2,15.5,0c3-0.2,3.8,0.8,3.3,3.6c-0.9,7.4-4.1,14.4-9.2,19.9c-24.5,25.8-40.8,58.4-46.6,93.6
	c-2.6,14.6-3.9,29.4-3.9,44.2c0,56.7-0.2,113.4,0,170c-0.2,26.8,5.3,53.3,16.3,77.8c6.8,16.9,11.1,34.8,12.8,53
	c2,15.3,4.3,30.5,6.6,45.8c0.5,3.3-0.3,3.9-3.3,3.8c-5.8-0.2-11.4-0.3-17.2,0c-3,0.2-3.6-1.1-3.9-3.6c-2.8-20.3-5.8-40.6-8.5-60.9
	c-1.5-9.7-4.3-19.2-8.3-28.1c-12.2-27.9-18.4-58.1-18.3-88.6C-3039.1-3680.1-3038.9-3709-3038.9-3737.8L-3038.9-3737.8z
	 M-3146.7-3494c-6.6,0.1-12.1-5.1-12.2-11.7c-0.1-6.6,5.1-12.1,11.7-12.2c6.6-0.1,12.1,5.1,12.2,11.7c0,0,0,0,0,0
	C-3134.9-3499.6-3140.2-3494.2-3146.7-3494z M-2919.1-3530c6.6,0,12,5.3,12,11.9c0,6.6-5.3,12-11.9,12c-6.6,0-12-5.3-12-11.9
	c0,0,0,0,0,0C-2931-3524.5-2925.7-3529.9-2919.1-3530z M-3098.9-3530c6.6,0,12,5.4,12,12.1c0,6.6-5.4,12-12,12
	c-6.6,0-11.9-5.4-11.9-11.9c0,0,0-0.1,0-0.1c-0.2-6.5,4.9-11.9,11.4-12C-3099.3-3530-3099.1-3530-3098.9-3530z M-3051.1-3517.9
	c-6.6-0.1-11.9-5.6-11.7-12.2c0.1-6.6,5.6-11.9,12.2-11.7c6.6,0.1,11.9,5.6,11.7,12.2c0,0,0,0,0,0
	C-3039.2-3523.1-3044.6-3517.9-3051.1-3517.9z M-2955-3554c0.1,6.6-5.2,12-11.8,12c-0.1,0-0.1,0-0.2,0c-6.6-0.1-12-5.4-12-12
	c0-6.6,5.3-12,11.9-12C-2960.6-3566.1-2955.1-3560.7-2955-3554z M-2907.1-3565.9c0,6.6-5.4,11.9-12,11.9c-6.6,0-11.9-5.4-11.9-12
	c0-6.6,5.4-11.9,12-11.9c0,0,0,0,0,0c6.5,0,11.8,5.2,11.9,11.7C-2907.1-3566.1-2907.1-3566-2907.1-3565.9z M-2859.1-3577.9
	c0.1,6.5-5.1,11.8-11.6,11.9c-0.2,0-0.3,0-0.5,0c-6.6,0-11.9-5.4-11.9-12c0-6.6,5.4-11.9,12-11.9
	C-2864.4-3589.9-2859.1-3584.5-2859.1-3577.9C-2859.1-3577.9-2859.1-3577.9-2859.1-3577.9z M-2775.1-3602c0,6.6-5.3,12-11.9,12
	c-6.6,0-12-5.3-12-11.9c0-6.6,5.3-12,11.9-12c0,0,0,0,0,0c6.5-0.1,11.9,5.1,12,11.6C-2775.1-3602.2-2775.1-3602.1-2775.1-3602z
	 M-2751-3614.3c0.3-6.6,5.9-11.7,12.5-11.4c6.3,0.3,11.3,5.5,11.4,11.8c-0.1,6.7-5.7,12-12.3,11.9c0,0-0.1,0-0.2,0
	C-2746.1-3602.2-2751.2-3607.8-2751-3614.3z M-2907.1-3613.9c-0.1,6.6-5.5,12-12.2,11.9c-6.6-0.1-12-5.5-11.9-12.2
	c0.1-6.6,5.5-12,12.2-11.9C-2912.3-3625.9-2907-3620.5-2907.1-3613.9z M-2918.9-3649.9c-6.6,0-12-5.4-12-12s5.4-12,12-12
	c6.6-0.1,12,5.2,12,11.8c0,0,0,0.1,0,0.1C-2906.9-3655.5-2912.3-3650-2918.9-3649.9z M-2931-3710c-0.1-6.6,5.2-12.1,11.9-12.2
	s12.1,5.2,12.2,11.9c0.2,6.6-5,12-11.6,12.2c-0.2,0-0.3,0-0.5,0c-6.5,0.2-11.9-4.9-12-11.4C-2931-3709.6-2931-3709.8-2931-3710z
	 M-2907.1-3757.9c0,6.6-5.4,12-12,12s-12-5.4-12-12c0-6.6,5.4-12,12-12h0c6.6-0.1,12,5.2,12,11.8
	C-2907.1-3758-2907.1-3758-2907.1-3757.9z M-2907.1-3806c0,6.6-5.2,12-11.7,12.2c-6.6,0.3-12.2-4.8-12.5-11.4s4.8-12.2,11.4-12.5
	c0.3,0,0.5,0,0.8,0c6.5-0.1,11.9,5,12,11.5C-2907.1-3806.2-2907.1-3806.1-2907.1-3806z M-2907.1-3854c0.1,6.6-5.2,12.1-11.9,12.2
	c0,0,0,0,0,0c-6.6,0.3-12.2-4.9-12.4-11.5c-0.3-6.6,4.9-12.2,11.5-12.4c0.3,0,0.5,0,0.8,0c6.4-0.2,11.8,4.9,12,11.3
	C-2907.1-3854.3-2907.1-3854.1-2907.1-3854z M-2919-3889.9c-6.6,0-12-5.3-12-11.9c0-6.6,5.3-12,11.9-12s12,5.3,12,11.9
	S-2912.3-3890-2919-3889.9C-2918.9-3889.9-2919-3889.9-2919-3889.9z M-2930.9-3950.2c0.3-6.6,5.9-11.7,12.5-11.4
	c6.3,0.3,11.3,5.5,11.4,11.8c0.1,6.6-5.2,12-11.9,12.1c-6.6,0.1-12-5.2-12.1-11.9C-2931-3949.8-2931-3950-2930.9-3950.2z"/>
</svg>
