<?xml version="1.0" encoding="utf-8"?>
<!-- Generator: Adobe Illustrator 21.1.0, SVG Export Plug-In . SVG Version: 6.00 Build 0)  -->
<svg version="1.1" id="Layer_1" xmlns="http://www.w3.org/2000/svg" xmlns:xlink="http://www.w3.org/1999/xlink" x="0px" y="0px"
	 viewBox="0 0 512 512" style="enable-background:new 0 0 512 512;" xml:space="preserve">
<style type="text/css">
	.st0{fill:#231F20;}
</style>
<path id="Path_689" class="st0" d="M256,71.8h213.1c22.4-1.3,41.6,15.9,42.9,38.3c0.1,1.5,0.1,3.1,0,4.6v282.7
	c1.4,22.3-15.6,41.5-38,42.9c-1.6,0.1-3.3,0.1-4.9,0h-426c-22.2,1.6-41.4-15.2-43-37.4c-0.1-1.8-0.1-3.5,0-5.3V114.2
	c-0.8-22.7,17-41.7,39.7-42.5c0.9,0,1.7,0,2.6,0H256z M490.7,103.9c-21.6,18.9-41.7,36.5-61.8,54c-43.5,38-87,76-130.5,114
	c-20.9,19.6-53.4,20-74.7,0.9c-64.4-54-128.7-108-193.1-162c-2.4-2-5-6.5-8.1-5c-2.6,1.3-1.9,6.1-1.9,9.6v281.5c0,2-1.2,5,1,5.9
	c2.6,1,3.7-2.2,5.2-3.7c36.3-36.1,72.6-72.2,108.9-108.3c10.2-10.1,10-10,20.2-0.3c3.6,3.5,3.6,5.2,0,8.8
	c-38.5,38.1-76.8,76.4-115.2,114.7c-1.4,1.4-4.3,2.6-3.2,4.9c0.9,1.9,3.5,0.9,5.2,0.9h425.5c2,0,4.9,1,5.9-1.2
	c1-2.2-1.9-3.5-3.3-4.9c-36.6-36.7-73.2-73.4-109.9-109.9c-9-9-8.5-8.5-0.1-18c4.6-5.1,7.1-4.1,11.4,0.3
	c37.4,37.7,74.9,75.3,112.6,112.7c1.7,1.7,2.9,4.1,5.8,4.4C490.7,303.7,490.7,204.7,490.7,103.9z M472,92.6H41.3
	c1.4,1.3,2.2,2,2.9,2.7c20.1,16.9,40.1,33.8,60.1,50.7c43.3,36.3,86.5,72.7,129.8,109c15,13.5,37.7,13.3,52.5-0.4
	c24.6-21.1,48.9-42.7,73.3-63.9C397,158.3,434.1,125.8,472,92.6z"/>
</svg>
