<?xml version="1.0" encoding="utf-8"?>
<!-- Generator: Adobe Illustrator 21.1.0, SVG Export Plug-In . SVG Version: 6.00 Build 0)  -->
<svg version="1.1" id="Layer_1" xmlns="http://www.w3.org/2000/svg" xmlns:xlink="http://www.w3.org/1999/xlink" x="0px" y="0px"
	 viewBox="0 0 512 512" style="enable-background:new 0 0 512 512;" xml:space="preserve">
<style type="text/css">
	.st0{fill:#231F20;}
</style>
<path id="Group_336" transform="translate(9158.006 3171)" class="st0" d="M-8646-2783c-1.4,5.7-2.4,11.4-4.3,16.9
	c-14,41.9-59.3,64.4-101.2,50.4c-41.9-14-64.4-59.3-50.4-101.2c14-41.9,59.3-64.4,101.2-50.4c28.5,9.5,49.3,34.3,53.7,64
	c0.2,1.1,0.5,2.2,1,3.3L-8646-2783z M-8662.6-2791.9c-0.1-35-28.6-63.2-63.6-63s-63.2,28.6-63,63.6c0.1,34.9,28.5,63.1,63.4,63
	c35-0.1,63.2-28.5,63.2-63.4C-8662.6-2791.8-8662.6-2791.9-8662.6-2791.9z M-9025.7-2948.8c62.9,1.5,115.6,48.1,124.7,110.4
	c0.8,5,0.9,10,1.4,14.9c0.6,7.6-2,12-7.5,12.4c-5.5,0.4-8.8-3.8-9-11.3c-0.4-16-4.2-31.8-11.3-46.2c-27.3-56.1-94.8-79.4-150.9-52.1
	c-32.1,15.6-54.9,45.5-61.6,80.6c-1.1,6.2-1.7,12.6-1.9,18.9c0.3,3.3-1,6.5-3.5,8.5c-2.4,2-5.8,2.3-8.5,0.9
	c-3.2-1.7-5.1-5.2-4.8-8.9c0.1-17.8,4-35.3,11.4-51.4c16.6-37.6,50.2-65,90.5-73.7C-9046.5-2947.9-9036.1-2948.9-9025.7-2948.8z
	 M-9028.9-2980.8c-38,0.1-68.9-30.6-69.1-68.6c-0.1-38,30.6-68.9,68.6-69.1c37.9-0.1,68.8,30.4,69.1,68.3
	C-8960.1-3012.1-8990.8-2981-9028.9-2980.8C-9028.8-2980.8-9028.8-2980.8-9028.9-2980.8z M-9081.4-3050.1
	c-0.2,28.9,23.1,52.5,52,52.7c28.9,0.2,52.5-23.1,52.7-52c0.2-28.9-23.1-52.5-52-52.7C-9057.6-3102.3-9081.2-3079-9081.4-3050.1
	L-9081.4-3050.1z M-8847.3-2980.8c-38-0.2-68.6-31.1-68.5-69.1c0.2-38,31.1-68.6,69.1-68.5c38,0.2,68.6,31.1,68.5,69.1c0,0,0,0,0,0
	C-8778.6-3011.4-8809.4-2980.8-8847.3-2980.8z M-8794.9-3049.6c-0.1-28.8-23.5-52.2-52.3-52.1s-52.2,23.5-52.1,52.3
	c0.1,28.8,23.5,52.2,52.3,52.1c0,0,0,0,0.1,0C-8818.2-2997.6-8795-3020.9-8794.9-3049.6L-8794.9-3049.6z M-8853.3-2948.8
	c41.6-1.9,81.6,16.3,107.5,49c3.5,3.2,3.7,8.6,0.4,12.1c-0.1,0.2-0.3,0.3-0.4,0.4c-3.3,3-8.4,2.8-11.4-0.5c-0.3-0.4-0.6-0.7-0.9-1.1
	c-6.9-8.3-14.8-15.8-23.5-22.3c-36.8-26.2-85.8-27.9-124.4-4.4l-3,1.9c-5.4,3.1-10.1,2.5-12.8-1.8c-2.7-4.3-1.3-8.8,3.9-12.1
	c7.1-4.7,14.6-8.6,22.5-11.8C-8882-2944.9-8867.8-2948.1-8853.3-2948.8z M-8745-2800c10.9,0,10.9,0,10.9-10.9c0-2.8-0.1-5.7,0.1-8.5
	c0-4.4,3.6-7.9,8-7.9c0,0,0,0,0,0c4.3-0.2,7.9,3.1,8.1,7.4c0,0.1,0,0.2,0,0.3c0.4,5.2,0.4,10.3,0.1,15.5c-0.1,3.4,1.1,4.4,4.3,4.1
	c4.6-0.3,9.4-0.1,14,0c4.6-0.5,8.7,2.7,9.2,7.3c0.5,4.6-2.7,8.7-7.3,9.2c-0.6,0.1-1.1,0.1-1.7,0c-5,0.3-10,0.1-15,0
	c-2.6-0.1-3.6,0.9-3.5,3.5c0.1,4.6,0.1,9.4,0,14c-0.1,6.2-3.3,9.9-8.1,9.9c-4.9,0-8.1-3.6-8.3-9.9c-0.1-4.5-0.1-9,0-13.5
	c0.1-3-0.8-4.1-3.9-4c-4.5,0.3-9,0.1-13.5,0c-6.5-0.1-10.3-3.5-10.1-8.6s3.9-7.9,10.1-8L-8745-2800z"/>
</svg>
