<?xml version="1.0" encoding="utf-8"?>
<!-- Generator: Adobe Illustrator 21.1.0, SVG Export Plug-In . SVG Version: 6.00 Build 0)  -->
<svg version="1.1" id="Layer_1" xmlns="http://www.w3.org/2000/svg" xmlns:xlink="http://www.w3.org/1999/xlink" x="0px" y="0px"
	 viewBox="0 0 512 512" style="enable-background:new 0 0 512 512;" xml:space="preserve">
<style type="text/css">
	.st0{fill:#231F20;}
</style>
<path id="Group_334" transform="translate(9640 2899)" class="st0" d="M-9640-2643.1c0.1-141.4,114.7-255.9,256.1-255.9
	s255.9,114.7,255.9,256.1c-0.1,141.4-114.7,255.9-256.1,255.9c0,0-0.1,0-0.1,0C-9525.6-2387.1-9640.1-2501.8-9640-2643.1z
	 M-9384.5-2407.5c130.1,0.3,235.7-104.9,236-235c0.3-130.1-104.9-235.7-235-236c-130-0.3-235.7,104.9-236,234.9
	C-9619.6-2513.6-9514.5-2408-9384.5-2407.5z M-9496-2569c75,52.5,149.3,51.6,224.6-0.5v17.3c0,2.6-2.3,3.5-3.8,4.7
	c-25.8,20.6-57,33.3-89.9,36.5c-39.2,4.6-78.9-4.3-112.4-25.3c-2.6-1.5-5-3.2-7.4-5C-9498.2-2551-9498.7-2552.4-9496-2569z
	 M-9429.1-2698.8c-0.6,1.9-1.9,3.5-3.6,4.6c-10.2,10.5-10.2,10.5-20.5,0.3c-10-10-19.9-19.8-29.9-30c-2.8-2.8-4.5-2.7-7.1,0
	c-11.9,12.2-24.2,24.1-36.1,36.4c-2.8,2.9-4.5,3.2-7.6,0.1c-10.9-11-11-10.9,0.1-21.9l43.4-43.4c2.4-2.6,4-3.6,7.1-0.4
	c17.1,17.3,34.3,34.4,51.5,51.6C-9430.7-2700.7-9429.9-2699.8-9429.1-2698.8z M-9224.3-2698.7c-0.9,2-2.3,3.8-4.1,5.1
	c-9.9,10-9.9,10-19.6,0.1c-9.7-9.8-19.7-19.5-29.3-29.4c-3.6-3.8-5.7-3.3-9.1,0.3c-11.5,11.9-23.6,23.4-35.1,35.5
	c-2.9,3.1-4.6,2.9-7.6,0c-10.9-10.9-11-10.8-0.3-21.5c14.6-14.6,29.3-29.2,43.8-43.9c2.6-2.6,4.1-3.3,7.1-0.3
	c17.1,17.3,34.3,34.4,51.5,51.6C-9225.9-2700.5-9225.1-2699.7-9224.3-2698.7z"/>
</svg>
