<?xml version="1.0" encoding="utf-8"?>
<!-- Generator: Adobe Illustrator 21.1.0, SVG Export Plug-In . SVG Version: 6.00 Build 0)  -->
<svg version="1.1" id="Layer_1" xmlns="http://www.w3.org/2000/svg" xmlns:xlink="http://www.w3.org/1999/xlink" x="0px" y="0px"
	 viewBox="0 0 512 512" style="enable-background:new 0 0 512 512;" xml:space="preserve">
<style type="text/css">
	.st0{fill:#231F20;}
</style>
<path id="Group_338" transform="translate(9640 3307)" class="st0" d="M-9188.7-3104.6c-4.8,0-8.6,3.9-8.6,8.6c0,0,0,0,0,0v277.7
	h-425.2v-425.2h425.3v8.6c-0.2,4.8,3.5,8.8,8.3,9c4.8,0.2,8.8-3.5,9-8.3c0-0.2,0-0.5,0-0.7v-26H-9640v459.9h459.9v-295.1
	C-9180.1-3100.7-9183.9-3104.6-9188.7-3104.6C-9188.7-3104.6-9188.7-3104.6-9188.7-3104.6z M-9130.5-3223.6
	c-3.3-3.4-8.7-3.5-12.1-0.2c-0.1,0.1-0.1,0.1-0.2,0.2l-263,262.9l-113.4-113.4c-3.4-3.4-8.9-3.4-12.2,0c-3.4,3.4-3.4,8.9,0,12.2
	l119.5,119.5c1.6,1.6,3.8,2.6,6.2,2.6c2.3,0,4.5-0.9,6.2-2.6l268.9-268.9C-9127.2-3214.7-9127.1-3220.2-9130.5-3223.6
	C-9130.5-3223.6-9130.5-3223.6-9130.5-3223.6z"/>
</svg>
