<?xml version="1.0" encoding="utf-8"?>
<!-- Generator: Adobe Illustrator 21.1.0, SVG Export Plug-In . SVG Version: 6.00 Build 0)  -->
<svg version="1.1" id="Layer_1" xmlns="http://www.w3.org/2000/svg" xmlns:xlink="http://www.w3.org/1999/xlink" x="0px" y="0px"
	 viewBox="0 0 512 512" style="enable-background:new 0 0 512 512;" xml:space="preserve">
<style type="text/css">
	.st0{fill:#231F20;}
</style>
<path id="Group_227" transform="translate(3197.2 3846.1)" class="st0" d="M-2939.2-3846c1.8,0.9,3.3,2.3,4.5,3.9
	c10.4,16.3,25.8,28.8,43.9,35.6c27.6,11.8,57.1,18.8,87.1,20.6c14.5,1.4,28.9,1.9,43.4,2c4.3-0.6,8.3,2.5,8.8,6.8
	c0.1,0.6,0.1,1.2,0,1.7c0.1,1.6,0,3.4,0,5c0,78.4-0.9,156.7,0.4,235.1c0.7,36-12.7,70.9-37.4,97.2c-25.9,28.1-55.9,52.2-88.9,71.4
	c-18.7,11.3-37.9,21.6-57.7,30.9c-3.9,2-8.5,2.1-12.4,0.1c-45.3-20.6-87.3-47.6-124.8-80.3c-20.9-17.6-37.8-39.4-49.6-64
	c-6.3-13.9-9.5-29-9.5-44.2v-248.6c0-9,2.2-11.3,11.3-11.3c33.4,0.3,66.6-3.8,98.9-12.1c19.6-4.9,38.1-13.5,54.4-25.4
	c7.3-5.3,13.5-12,18.1-19.7c1.2-1.7,2.6-3.4,4.1-4.9C-2942.6-3846-2940.8-3846-2939.2-3846z M-3089.8-3632c0,30.6,0.1,61.3,0,92.1
	c-0.2,15.4,3.7,30.6,11.4,43.9c9.7,16.6,22.1,31.4,36.6,43.9c28.8,24.6,60.9,45.1,95.3,60.9c3.4,1.8,7.5,1.7,10.9-0.1
	c15.1-7,29.7-14.9,43.9-23.6c28.3-16.1,53.6-37,74.7-61.8c15.9-18.5,24.6-42,24.5-66.4c-0.6-62-0.2-124.1-0.2-186v-4.1
	c-0.1-6.7-1.7-8.5-8.6-8.6c-4.9-0.1-9.6,0-14.5-0.2c-25.5-0.5-50.8-4.8-75.1-12.8c-16.4-4.9-31-14.4-42.1-27.4
	c-8.3-10.6-8.1-10.6-16.6,0.1c-11.1,13-25.8,22.5-42.1,27.4c-28.4,9.2-58.2,13.7-88.1,13.1c-8.5,0.1-9.9,1.5-9.9,9.9
	C-3089.8-3698.6-3089.8-3665.2-3089.8-3632z M-2812-3678c-0.1,2.2-1.2,4.1-3,5.4c-23.3,21.8-44.6,45.5-63.8,70.9
	c-27.3,34.4-50.3,71.9-68.5,111.8c-3,7-5.1,7.4-10.3,2.1c-31.1-31.6-62.2-63.3-93.4-94.8c-3-3-2.5-4.6,0.2-7.1
	c7.5-7,15.4-13.9,23.4-20.4c2.5-2.1,4.4-1.7,6.9,0.2c15.9,12.6,32,25.1,47.9,37.8c2.5,2,3.8,2,5.9-0.5
	c33.6-38.6,71.8-73.2,113.6-102.8c8.8-6.1,17.8-11.8,26.6-17.8c1.6-1.1,3.1-2,4.6,0.1c3.1,4.4,6.1,8.6,9.3,13
	C-2812.4-3679.3-2812.2-3678.7-2812-3678z"/>
</svg>
