<?xml version="1.0" encoding="utf-8"?>
<!-- Generator: Adobe Illustrator 21.1.0, SVG Export Plug-In . SVG Version: 6.00 Build 0)  -->
<svg version="1.1" id="Layer_1" xmlns="http://www.w3.org/2000/svg" xmlns:xlink="http://www.w3.org/1999/xlink" x="0px" y="0px"
	 viewBox="0 0 512 512" style="enable-background:new 0 0 512 512;" xml:space="preserve">
<style type="text/css">
	.st0{fill:#231F20;}
</style>
<g id="Group_335" transform="translate(9158 3035)">
	<path id="Path_672" class="st0" d="M-8826.4-3031.2H-9101v508.2h398v-384.6L-8826.4-3031.2z M-8821.5-3002.3l89.7,89.7h-89.7
		V-3002.3z M-9084.1-2540v-474.3h245.6v118.5h118.5v355.6h-364.1V-2540z"/>
	<path id="Path_673" class="st0" d="M-8863.9-2717.8c4.7,0,8.5-3.8,8.5-8.5c0-4.7-3.8-8.5-8.5-8.5c0,0,0,0,0,0h-143.9
		c-4.7,0-8.5,3.8-8.5,8.5s3.8,8.5,8.5,8.5c0,0,0,0,0,0H-8863.9z"/>
	<path id="Path_674" class="st0" d="M-8779.2-2777.1h-59.3c-4.7,0-8.5,3.8-8.5,8.5c0,4.7,3.8,8.5,8.5,8.5c0,0,0,0,0,0h59.3
		c4.7,0,8.5-3.8,8.5-8.5C-8770.6-2773.2-8774.4-2777.1-8779.2-2777.1C-8779.1-2777.1-8779.1-2777.1-8779.2-2777.1L-8779.2-2777.1z"
		/>
	<path id="Path_675" class="st0" d="M-8974-2768.7c0,4.7,3.8,8.5,8.5,8.5h84.7c4.7,0,8.5-3.8,8.5-8.5c0-4.7-3.8-8.5-8.5-8.5h-84.7
		C-8970.1-2777.1-8973.9-2773.4-8974-2768.7z"/>
	<path id="Path_676" class="st0" d="M-9013.8-2774.7c-3.3,3.2-3.4,8.5-0.1,11.9c0,0,0.1,0.1,0.1,0.1c3.2,3.3,8.5,3.4,11.9,0.1
		c0,0,0.1-0.1,0.1-0.1c3.3-3.2,3.4-8.5,0.1-11.9c0,0-0.1-0.1-0.1-0.1C-9005.3-2777.7-9010.4-2777.7-9013.8-2774.7z"/>
	<path id="Path_677" class="st0" d="M-8827.5-2732.3c-1.6,1.6-2.5,3.7-2.5,6c0,2.3,0.9,4.4,2.5,6c3.2,3.3,8.5,3.4,11.9,0.1
		c0,0,0.1-0.1,0.1-0.1c1.6-1.6,2.5-3.7,2.5-6c0-2.2-0.9-4.4-2.5-6C-8818.9-2735.4-8824.1-2735.4-8827.5-2732.3z"/>
	<path id="Path_678" class="st0" d="M-8785.3-2732.3c-1.6,1.6-2.5,3.7-2.5,6c0,2.3,0.9,4.4,2.5,6c3.2,3.3,8.5,3.4,11.9,0.1
		c0,0,0.1-0.1,0.1-0.1c1.6-1.6,2.5-3.7,2.5-6c0-2.2-0.9-4.4-2.5-6C-8776.7-2735.4-8781.9-2735.4-8785.3-2732.3z"/>
	<path id="Path_679" class="st0" d="M-8961-2691c-18.6,9.7-24.8,28.1-27.1,47.3c-3.5-3-7.1-5.9-10.5-8.8c-8.3-6.9-20.4,4.9-12,12
		c7.9,6.6,15.8,13.3,23.7,19.9c3.5,3.2,8.9,3.1,12.2-0.4c1.4-1.5,2.2-3.5,2.3-5.6c0.6-18.3,1.4-40.1,19.9-49.7
		C-8942.8-2681.4-8951.4-2696-8961-2691z"/>
	<path id="Path_680" class="st0" d="M-8847.3-2657.6c-12.3-0.8-30.4,18.2-40,1.3c-2.4-4-7.6-5.3-11.6-3c-12,7.3-27.6,18-40.2,4.2
		c-7.4-8-19.4,3.9-12,12c15.8,17.2,36.2,12,54.2,2.3c4,4.7,9.5,7.9,15.6,9.1c6.7,1.3,34.1-9.7,35.6-7.7c6.3,8.7,21.1,0.2,14.6-8.5
		C-8834.5-2653.7-8840.6-2657.3-8847.3-2657.6z"/>
	<path id="Path_681" class="st0" d="M-8913.3-2828.2l5.7-4.1l-2.9-6.3c-2.5-5.6-6.8-10.2-12.3-12.9l-17.9-9.2
		c8.5-5.6,14.8-14,17.7-23.7c5.9-3.6,9.4-9.9,9.5-16.8v-5.6c0-5.6-2.4-11-6.7-14.7c-3-16-13.9-33.4-46.9-33.4c-1.3,0-2.5,0-3.8,0.1
		c-5.7,0.6-11.5-0.6-16.4-3.7c-1.7-1.1-3.2-2.4-4.6-3.8c-2.7-3.4-7.3-4.6-11.3-3c-4,1.6-6.4,5.7-5.9,9.9c0.2,2.2,0.6,4.7,1.2,7.5
		c0.4,1.6,0.6,3.3,0.7,4.9c-0.1,0.2-0.6,1.3-1,2.2c-0.6,1.3-1.3,2.9-2.2,4.9c-1.9,4.7-3.2,9.6-3.9,14.6c-4.2,3.6-6.7,8.8-6.6,14.4
		v5.6c0,6.9,3.6,13.2,9.5,16.8c3,9.7,9.2,18.1,17.7,23.7l-18.7,9.2c-5.2,2.9-9.4,7.5-11.7,13.1l-2.8,6.2l5.5,3.9
		C-8989-2805.4-8945.7-2805.3-8913.3-2828.2L-8913.3-2828.2z M-9003.5-2837.2l20.7-10.2c4.4-2.1,7.2-6.6,7.2-11.5v-12.1l-5.2-2.2
		c-8.1-3.6-13.8-11-15.5-19.6l-1.2-4.6l-4.4-1.4c-1.1-0.4-2-1.4-2-2.6v-5.6c0-1,0.6-2,1.6-2.4l3.9-2.2l0.5-4.4
		c0.4-4.7,1.5-9.4,3.3-13.8c0.6-1.4,1.2-2.8,2-4.2c1.2-2.2,2-4.7,2.4-7.2c6.6,2.7,13.7,3.7,20.7,3c0.8-0.1,1.7-0.1,2.5-0.1
		c24.7,0,29.3,11.3,30.7,22.4l0.5,4.4l3.9,2c1,0.5,1.6,1.4,1.6,2.5v5.6c0,1.2-0.8,2.3-2,2.6l-4.4,1.4l-1.2,4.6
		c-1.6,8.7-7.4,16-15.5,19.6l-5.2,2.2v12.1c0,4.8,2.6,9.2,6.9,11.4l20.5,10.4C-8953.9-2825-8981-2825.1-9003.5-2837.2z"/>
</g>
</svg>
