<?xml version="1.0" encoding="utf-8"?>
<!-- Generator: Adobe Illustrator 21.1.0, SVG Export Plug-In . SVG Version: 6.00 Build 0)  -->
<svg version="1.1" id="Layer_1" xmlns="http://www.w3.org/2000/svg" xmlns:xlink="http://www.w3.org/1999/xlink" x="0px" y="0px"
	 viewBox="0 0 512 512" style="enable-background:new 0 0 512 512;" xml:space="preserve">
<style type="text/css">
	.st0{fill:#231F20;}
</style>
<path id="Group_388" transform="translate(9366.473 4296)" class="st0" d="M-8854.5-3997.7c-1,6.7-1.7,13.5-2.9,20.3
	c-7.2,50.8-38.7,94.9-84.5,118c-16.7,8.9-34.7,15.4-53.2,19.1c-2,0.4-3.4,0.6-4.4-1.7c-5.9-14.1-12-28.1-18.1-42.5
	c10.9-2.1,21.5-5.6,31.5-10.4c17.8-7.5,32.4-21.2,40.9-38.6c12.3-25.7,9.9-56-6.4-79.4c-1.3-2.1-3.8-3.2-6.2-2.9
	c-38.4,0-76.6,0-115,0.1c-4.4,0-5.9-0.7-5.9-5.6c0.1-71,0.1-142,0-212.9c0-4.5,1.1-5.7,5.7-5.7c72.7,0.1,145.5,0.2,218.3,0.1
	C-8854.5-4159.1-8854.4-4078.3-8854.5-3997.7z M-9142.5-4117.5v103.5c0.8,30.6-6,60.9-19.7,88.2c-15.3,28.6-38.9,51.8-67.7,66.5
	c-16.5,8.8-34.1,15.1-52.4,19c-3.5,0.7-4.6-0.4-5.9-3.2c-5.1-12.2-10.2-24.6-15.8-36.6c-1.8-3.9-0.5-4.6,2.9-5.4
	c15.6-3.1,30.3-9.5,43.2-18.6c32-22.9,42-66.1,23.1-100.6c-2.9-7.4-10.5-12-18.4-11c-36.1,0.6-72.4,0.2-108.5,0.4c-4,0-4.9-1-4.9-5
	c0.1-71.5,0.1-143,0-214.5c0-3.6,0.6-4.7,4.6-4.7c71.6,0.1,143.3,0.1,215,0c3.9,0,4.6,1.1,4.6,4.7
	C-9142.5-4195.9-9142.5-4156.8-9142.5-4117.5z"/>
</svg>
