<?xml version="1.0" encoding="utf-8"?>
<!-- Generator: Adobe Illustrator 21.1.0, SVG Export Plug-In . SVG Version: 6.00 Build 0)  -->
<svg version="1.1" id="Layer_1" xmlns="http://www.w3.org/2000/svg" xmlns:xlink="http://www.w3.org/1999/xlink" x="0px" y="0px"
	 viewBox="0 0 512 512" style="enable-background:new 0 0 512 512;" xml:space="preserve">
<style type="text/css">
	.st0{fill:#231F20;}
</style>
<path id="Group_388" transform="translate(9366.473 4296)" class="st0" d="M-9366.5-4082.3c1-6.7,1.7-13.5,2.9-20.3
	c7.2-50.8,38.7-94.9,84.5-118c16.7-8.9,34.7-15.4,53.2-19.1c2-0.4,3.4-0.6,4.4,1.7c5.9,14.1,12,28.1,18.1,42.5
	c-10.9,2.1-21.5,5.6-31.5,10.4c-17.8,7.5-32.4,21.2-40.9,38.6c-12.3,25.7-9.9,56,6.4,79.4c1.3,2.1,3.8,3.2,6.2,2.9
	c38.4,0,76.6,0,115-0.1c4.4,0,5.9,0.7,5.9,5.6c-0.1,71-0.1,142,0,212.9c0,4.5-1.1,5.7-5.7,5.7c-72.7-0.1-145.5-0.2-218.3-0.1
	C-9366.5-3920.9-9366.5-4001.7-9366.5-4082.3z M-9078.5-3962.5v-103.5c-0.8-30.6,6-60.9,19.7-88.2c15.3-28.6,38.9-51.8,67.7-66.5
	c16.5-8.8,34.1-15.1,52.4-19c3.5-0.8,4.6,0.4,5.9,3.2c5.1,12.2,10.2,24.6,15.8,36.6c1.8,3.9,0.5,4.6-2.9,5.4
	c-15.6,3.1-30.3,9.5-43.2,18.6c-32,22.9-42,66.1-23.1,100.6c2.9,7.4,10.5,12,18.4,11c36.1-0.6,72.4-0.2,108.5-0.4c4,0,4.9,1,4.9,5
	c-0.1,71.5-0.1,143,0,214.5c0,3.6-0.6,4.7-4.6,4.7c-71.6-0.1-143.3-0.1-215,0c-3.9,0-4.6-1.1-4.6-4.7
	C-9078.5-3884.1-9078.5-3923.2-9078.5-3962.5z"/>
</svg>
