<?xml version="1.0" encoding="utf-8"?>
<!-- Generator: Adobe Illustrator 21.1.0, SVG Export Plug-In . SVG Version: 6.00 Build 0)  -->
<svg version="1.1" id="Layer_1" xmlns="http://www.w3.org/2000/svg" xmlns:xlink="http://www.w3.org/1999/xlink" x="0px" y="0px"
	 viewBox="0 0 512 512" style="enable-background:new 0 0 512 512;" xml:space="preserve">
<style type="text/css">
	.st0{fill:#231F20;}
</style>
<path id="Path_400" class="st0" d="M87.4,3.7c2,1.7,4.1,3.3,5.9,5c136.5,136.4,272.9,272.8,409.3,409.4l2.5,2.5
	c3.5,2.6,4.2,7.5,1.6,11c-0.5,0.6-1,1.2-1.6,1.6c-24,24.1-48,48.2-72.1,72.1c-2.7,3.5-7.7,4.1-11.2,1.4c-0.5-0.4-1-0.9-1.4-1.4
	c-1.2-1.1-2.3-2.3-3.4-3.4L9.8,94.5c-2.2-2.2-4.1-4.7-6.2-7v-4.9c2.3-2.6,4.6-5.2,6.9-7.5c21.3-21.3,42.6-42.7,64.1-64.1
	c2.5-2.6,5.3-4.8,7.9-7.3H87.4z M95.4,33.4c-0.5-0.6-0.9-1.2-1.2-1.7c-2.1-2.1-4.3-4.1-6.3-6.3c-2.1-2.6-3.6-2.2-5.8,0.1
	c-18.7,19-37.6,37.7-56.4,56.4c-2.3,2.3-2.7,3.6-0.1,6.2c128.4,128.2,256.7,256.6,385,385c2.6,2.6,3.8,2.2,6.2-0.1
	c17-17.1,34.1-34.2,51.1-51.2c8.4-8.4,8.3-8.3-0.1-16.5c-2.1-2.1-3.2-1.7-5,0.3c-8.4,8.6-16.8,17-25.4,25.5
	c-8.3,8.3-8.1,8.1-16.5-0.3c-2.5-2.5-2-3.7,0.1-5.8c10.3-10.1,20.5-20.5,30.8-30.5c2-1.9,2.2-3,0.1-5c-4.8-4.4-9.5-9.1-13.9-13.9
	c-2.1-2.2-3.2-1.7-5,0.1c-4.6,4.8-9.2,9.4-13.9,13.9c-8.7,8.7-8.6,8.6-17.2-0.5c-1.9-2-1.6-3,0.1-4.7c6.7-6.5,13.2-13.3,20-19.7
	c2.2-2.1,2.1-3.3,0-5.4c-4.6-4.2-9-8.6-13.2-13.2c-2.2-2.5-3.6-2.2-5.8,0c-8.3,8.5-16.6,16.8-25,25.1c-8.4,8.3-8.1,8.1-16.5-0.1
	c-2.7-2.6-2-3.8,0.3-6c10.1-9.8,20-20,30.1-29.8c2.1-2,3.1-3.3,0.4-5.8c-4.8-4.4-9.4-9.1-13.9-13.9c-1.6-1.7-2.7-1.7-4.3,0
	c-4.7,4.8-9.5,9.6-14.3,14.3c-8.7,8.7-8.6,8.6-17.1-0.3c-2.1-2.1-1.7-3.2,0.3-5c6.5-6.3,12.7-12.8,19.2-19.1
	c2.3-2.2,2.8-3.7,0.1-6.2c-4.6-4.1-8.9-8.4-12.9-12.9c-2.5-2.7-3.8-2.2-6.2,0.1c-8.3,8.5-16.6,16.8-25,25.1c-8,8-7.9,7.9-16.1-0.1
	c-2.6-2.6-2.1-3.9,0.1-6.2c10.2-10,20.2-20.2,30.4-30.2c2.1-2.1,2.3-3.3,0-5.4c-4.7-4.3-9.2-8.9-13.6-13.6c-1.9-2-3.1-2.2-5-0.1
	c-4.6,4.9-9.5,9.6-14.3,14.3c-8.1,8.1-8,8-16.3,0.1c-2.3-2.3-2.7-3.7-0.1-6.2c6.5-6.2,12.8-12.8,19.2-19.1c2.1-2.1,2.5-3.3,0.1-5.4
	c-4.4-4.1-8.9-8.4-12.9-12.9c-2.5-2.7-3.8-3-6.5-0.1c-8,8.5-16.4,16.5-24.6,24.8c-8.3,8.2-8.3,8.3-16.6,0c-2.3-2.3-2.2-3.4,0-5.6
	c10.3-10.1,20.5-20.5,30.8-30.5c1.9-1.9,2.5-3,0.3-5c-4.9-4.6-9.6-9.4-14.3-14.3c-1.7-1.7-2.7-1.6-4.3,0c-4.7,4.8-9.5,9.6-14.3,14.3
	c-8.7,8.7-8.6,8.6-17.2-0.3c-2-2.1-1.9-3.2,0.1-5c6.8-6.5,13.2-13.3,20-19.8c2.1-2,2-3.1,0-5c-4.7-4.4-9.2-8.9-13.6-13.6
	c-2.1-2.2-3.3-2.2-5.4,0c-8.4,8.6-16.8,17-25.4,25.5c-2.6,2.6-5,6.9-7.8,7c-3.2,0.1-5.3-4.8-8.3-7c-3.2-2.5-2.2-4.1,0.3-6.5
	c10.1-9.8,20-20,30.1-29.9c2-2,2.6-3.2,0.3-5.4c-4.7-4.3-9.2-8.9-13.6-13.6c-2.2-2.5-3.6-1.7-5.4,0.3c-4.6,4.8-9.2,9.4-13.9,13.9
	c-8.3,8.3-8.1,8.1-16.5-0.3c-2.5-2.5-1.9-3.8,0.3-5.8c6.7-6.4,12.9-13.1,19.6-19.5c1.9-1.7,2-2.8,0.1-4.7
	c-4.7-4.4-9.2-8.9-13.6-13.6c-2.5-2.7-3.8-2.1-6,0.3c-8.3,8.5-16.6,16.8-25,25.1c-8,8-7.8,7.8-15.9,0.1c-3-2.8-2.3-4.3,0.3-6.9
	c10.1-9.8,20-20,30.1-29.8c2.1-2.1,2.3-3.2,0.1-5.3c-4.6-4.2-9-8.6-13.3-13.2c-2.1-2.2-3.4-2.7-5.8-0.3c-4.3,4.7-9,9.1-13.6,13.7
	c-8.7,8.7-8.7,8.7-17.2-0.1c-2-2.1-1.7-3.2,0.1-5c6.4-6.2,12.4-12.6,18.9-18.7c2.6-2.5,3.3-4.2,0.3-6.9c-4.3-3.8-8.4-7.9-12.2-12.2
	c-2.3-2.7-3.8-3-6.5-0.1c-7.9,8.4-16.1,16.4-24.3,24.5c-8.7,8.7-8.6,8.6-17.2,0c-2.3-2.3-1.7-3.3,0.3-5.3C73,56.7,82.9,46.5,93,36.3
	C93.7,35.5,94.5,34.5,95.4,33.4z M426.7,488.7c1.5-0.1,2.1-1.4,3-2.3c18.9-18.7,37.6-37.6,56.4-56.4l1.7-1.7
	c0.7-0.9,1.1-1.6,0.1-2.5c-1-0.9-1.7-0.1-2.5,0.5c-0.6,0.5-1.2,1.1-1.7,1.7L427.7,484c-0.9,0.8-1.7,1.6-2.3,2.6
	C424.8,487.7,425.7,488.3,426.7,488.7z"/>
</svg>
