<?xml version="1.0" encoding="utf-8"?>
<!-- Generator: Adobe Illustrator 21.1.0, SVG Export Plug-In . SVG Version: 6.00 Build 0)  -->
<svg version="1.1" id="Layer_1" xmlns="http://www.w3.org/2000/svg" xmlns:xlink="http://www.w3.org/1999/xlink" x="0px" y="0px"
	 viewBox="0 0 512 512" style="enable-background:new 0 0 512 512;" xml:space="preserve">
<style type="text/css">
	.st0{fill:#231F20;}
</style>
<g id="Group_230" transform="translate(3675.098 3981.758)">
	<path id="Path_399" class="st0" d="M-3168.2-3667.1c-3.8,16.3-14.9,30-30.1,37.2c-30.6,19-65.9,29-101.9,28.8
		c-96.2-0.1-192.4-0.1-288.6,0c-20,0.8-40-2-59-8.1c-6.7-2.2-12.9-5.7-18.3-10.2c-4-3.1-5.6-8.3-4.2-13.1
		c2.8-10.8,5.2-21.6,7.7-32.4c0.6-2.2,0.6-4.5,0-6.7c-11.5-42.4-7.9-87.4,10.3-127.4c3.4-7.7,6.5-15.7,9.9-23.4
		c1.4-5.8,7.3-9.4,13.1-7.9c2.9,0.7,5.4,2.6,6.9,5.2c7.1,8.6,13.9,17.4,21.1,25.9c19.9,23.3,52.9,30.5,80.7,17.7
		c3.9-1,6.3-4.9,5.4-8.9c-0.1-0.2-0.1-0.5-0.2-0.7c-4.9-19,0.8-39.1,15-52.6c1.7-1.6,3.5-3,5.4-4.3c4.6-3.9,11.5-3.3,15.4,1.3
		c0.5,0.5,0.8,1.1,1.2,1.7c4.9,7.1,9.7,14.3,14.5,21.6c1.4,2.1,2.6,3.8,5.6,3.7c2.9,0.3,5.7,1.4,8.1,3.2
		c50.9,27.1,101.9,54,152.5,81.6c12,6.3,25,10.4,38.4,12.1c22.8,3.3,45.5,7.2,68.2,10.8c4,0.5,7.4,2.8,9.4,6.3
		c5.7,8.3,10.1,17.5,13.1,27.1C-3168.2-3674.9-3168.2-3671-3168.2-3667.1z M-3569-3756.6c3.4,10.5,10,19.6,19,25.9
		c28.7,21.6,57.4,43.2,86.1,64.9c1.3,1.2,2.9,2.1,4.7,2.6c12.4,2.3,24.7,4.7,37,7.1c2.2,0.6,4.6-0.2,6-2
		c11.4-10.9,22.9-21.8,34.5-32.8c0.7-0.7,1.8-1.2,2-2.7c-1.5-0.9-3.1-1.7-4.7-2.6c-22.4-11.8-45.1-22.9-67.1-35.5
		c-8.5-6.4-19.9-7.5-29.6-2.9c-4.3,2-9.5,0.9-12.6-2.7c-5-4.9-10.6-9.3-15.2-14.6c-5.6-6.4-11.4-9.7-19.6-5
		c-0.8,0.3-1.6,0.4-2.5,0.4C-3543.5-3753.8-3556.5-3753.8-3569-3756.6z M-3246.1-3631.8l-24.3,2.2c-59.2,5.3-118.9,2-177.1-9.7
		c-22-5.1-44.3-8.5-66.7-10.3c-23.1-1.1-46.1-2.9-69.1-4.4c-18.3-1.1-36.6-2.2-54.8-3.4c-3.2-0.3-4.7,0.6-5.3,3.9
		c-0.6,4-1.8,8-2.8,11.9c-2.3,9.8-2.2,9.7,7.5,12.9c16.8,4.9,34.3,7.1,51.8,6.4c89.8,0.1,179.6,0,269.4,0.1c10.9,0,22,0.1,32.9-0.9
		C-3271.4-3623.9-3258.4-3626.8-3246.1-3631.8z M-3506.5-3670.2c-0.5-2.2-2.2-2.7-3.4-3.7c-17.3-13.1-34.6-26.2-52-39.3
		c-10.4-7.5-18.8-17.4-24.3-28.9c-3.2-6.5-5.2-13.5-6-20.6c-0.2-2.1-1.6-4-3.6-4.8c-1.8-1-2.3,0.6-2.9,1.5
		c-10.5,15.1-26.9,25.1-45.2,27.5c-2.2,0.4-3.2,1.2-3.3,3.8c-1.3,17.1,0,34.4,3.7,51.2c0.7,3.4,1.7,4.8,5.6,5
		c33.2,2,66.5,4.3,99.7,6.4C-3527.6-3671.5-3517.2-3671-3506.5-3670.2z M-3332.9-3648.7c0.7,0.2,1.5,0.3,2.2,0.4
		c45.8,0.5,91.4-4.1,136.2-13.7c2-0.3,3.5-1.8,3.9-3.7c2.2-7.8,0.4-16.2-4.8-22.4c-1-1.5-2.1-1-3.4-0.7c-37,8.5-74.6,15-111,26
		C-3318.8-3660.6-3326.8-3655.6-3332.9-3648.7z M-3364.3-3747.1c-3.8-2.1-7.2-3.7-10.4-5.6c-2-1.2-3.2-0.6-4.7,0.9
		c-3.7,4-7.2,8-11,11.8c-4,4.3-10.7,4.7-15,0.7c-4.3-4.2-4.5-11-0.3-15.4c0,0,0.1-0.1,0.1-0.1c2.2-2.6,4.7-5,7-7.5
		c0.6-0.7,1.6-1.2,1.2-2.5c-3.2-3.4-8.3-4.3-12.4-2.1c-3.7,3.7-7.1,7.7-11,11c-3.5,3.1-8.8,3.1-12.3,0c-3.6-2.5-5.1-7.1-3.8-11.3
		c1-2.8,2.7-5.3,5-7.1c5.8-6.1,5.6-6-1.6-10.1c-2.9-1.7-4.7-1.7-7,1c-3.4,4.2-7.2,8-11.4,11.4c-4.5,3.4-11,2.5-14.4-2.1
		c-1-1.4-1.7-3-2-4.8c-0.3-3.8,1.2-7.5,4-10.1c3-2.5,5.3-5.7,6.9-9.2c-11.3,7.6-21.3,14.5-31.5,21.3c-9.1,6.1-8.6,5.8-1.2,14
		c3.8,5.5,11.2,7.1,16.9,3.7c5.4-2.5,11.8-2.1,16.8,1.2c6.5,3.8,13.2,7,19.9,10.6c23.3,12.1,46.6,24.4,69.8,36.6
		c1.8,1,3.4,2.3,5.6,0.1c7-6.9,14.2-13.5,21.3-20.2c0.6-0.6,1.7-1.1,1.2-2.3c-2.2-2.4-5.7-3.1-8.6-1.6c-3.6,3.7-6.9,7.5-10.4,11
		c-3.8,4.5-10.6,5-15.1,1.1c-0.1-0.1-0.2-0.2-0.3-0.3c-4.2-3.9-4.4-10.5-0.5-14.7c0.2-0.2,0.4-0.4,0.6-0.6
		C-3370.2-3741-3367.4-3743.9-3364.3-3747.1L-3364.3-3747.1z M-3391.8-3651.9c11.4,1,21.3,1.7,31.4,2.6c1.7,0.1,2.2-1,2.9-2.1
		c10.5-17.2,27.7-29.4,47.5-33.5c5.3-1.4,12.8-1.1,15.2-5.3c2.5-4.2,0.1-10.8,0.3-16.3c0.2-2.2-1-4.2-3.1-4.9
		c-5.6-2.7-11-5.6-16.4-8.7c-2-1.6-5-1.2-6.6,0.8c0,0,0,0,0,0.1c-16.1,15.4-32.3,30.5-48.5,45.9
		C-3376.2-3666.9-3383.5-3659.9-3391.8-3651.9L-3391.8-3651.9z M-3643-3760.1c11.5-2.9,21.6-10.1,28.1-20c0.9-1,0.8-2.5-0.2-3.4
		c0,0-0.1-0.1-0.1-0.1c-3.9-4.5-7.7-9.2-11.5-13.9c-1.6-1.8-2.3-1.7-3.3,0.5C-3635.4-3785-3639.7-3772.7-3643-3760.1z
		 M-3489.6-3824.3c-5,7.8-6.8,17.1-5.2,26.2c4.9-3.3,9.3-6.4,13.7-9.2c1.4-1,1.6-1.7,0.6-3.2
		C-3483.4-3815-3486.5-3819.4-3489.6-3824.3L-3489.6-3824.3z M-3250.8-3699.5v-0.9c-6.5-1-13.1-2.1-19.6-3.1c-1-0.1-2.6-0.7-2.7,0.9
		c-0.3,2.2-0.2,4.5,0.1,6.7c0.3,1.7,1.8,0.6,2.8,0.5C-3263.6-3696.6-3257.1-3698.1-3250.8-3699.5L-3250.8-3699.5z"/>
</g>
</svg>
