<?xml version="1.0" encoding="utf-8"?>
<!-- Generator: Adobe Illustrator 21.1.0, SVG Export Plug-In . SVG Version: 6.00 Build 0)  -->
<svg version="1.1" id="Layer_1" xmlns="http://www.w3.org/2000/svg" xmlns:xlink="http://www.w3.org/1999/xlink" x="0px" y="0px"
	 viewBox="0 0 512 512" style="enable-background:new 0 0 512 512;" xml:space="preserve">
<style type="text/css">
	.st0{fill:#231F20;}
</style>
<path id="Group_233" transform="translate(3197.016 4254.1)" class="st0" d="M-2937.1-4254c7.2,2.4,13,7.7,16,14.6
	c41.2,71.7,78.4,145.7,111.2,221.6c13.2,29.6,23.3,60.6,30,92.4c3.7,20.8,2.4,42.1-3.7,62.3c-15.1,60.2-63.9,106.1-124.9,117.6
	c-73,15.2-146.9-21.2-179.4-88.2c-12.2-24.4-17.8-51.6-16.2-78.9c1.8-18.8,6-37.2,12.6-54.9c20.3-56.7,44.6-111.9,72.9-165.1
	c18.9-37.2,39.1-73.7,59.3-110.3c3.1-5.4,8.1-9.4,14-11.1C-2942.4-4254-2939.8-4254-2937.1-4254z M-2940.9-4196
	c-1,1.6-1.5,2.2-1.9,3c-30.5,56-60,112.5-85.7,170.9c-13.3,28.7-24.4,58.4-33.1,88.8c-5.2,18.5-5.6,38.1-1,56.7
	c6,26,20.4,49.3,40.8,66.5c25.9,22.8,60.5,33.3,94.7,28.7c44.2-4.3,82.6-32.4,100-73.2c10.2-20.9,13.4-44.4,9.1-67.2
	c-6.1-27.5-15-54.2-26.6-79.9c-23.1-54.9-50-108.1-78-160.7C-2928.6-4173.5-2934.6-4184.4-2940.9-4196L-2940.9-4196z
	 M-2854.8-3901.3c-2.2,45.4-39.2,81.3-84.6,82.2c-10.5,0.8-19.6-6.9-20.6-17.3c-1.3-10.1,5.9-19.3,16-20.6c0.7-0.1,1.3-0.1,2-0.1
	c10.5-0.4,20.7-3.8,29.4-9.7c12.3-9.3,19.6-23.7,19.7-39.1c0.4-10.6,9.3-18.8,19.8-18.4c7.9,0.3,14.9,5.5,17.4,13
	C-2854.7-3908.1-2854.4-3904.7-2854.8-3901.3z"/>
</svg>
