<?xml version="1.0" encoding="utf-8"?>
<!-- Generator: Adobe Illustrator 21.1.0, SVG Export Plug-In . SVG Version: 6.00 Build 0)  -->
<svg version="1.1" id="Layer_1" xmlns="http://www.w3.org/2000/svg" xmlns:xlink="http://www.w3.org/1999/xlink" x="0px" y="0px"
	 viewBox="0 0 512 512" style="enable-background:new 0 0 512 512;" xml:space="preserve">
<style type="text/css">
	.st0{fill:#231F20;}
</style>
<path id="Group_228" transform="translate(3675.4 3846)" class="st0" d="M-3674.1-3638.8c2.5-4,7.1-6.1,11.8-5.5
	c8.1,0.2,16.3-0.1,24.3,0.2c2.8,0,4.3-0.9,4.5-3.8c0.3-4.3,3.7-9.7,1.1-12.7c-2.2-2.6-8.2-0.6-12.4-0.7c-4.6-0.1-9.3,0.1-13.9-0.1
	c-4.6,0.5-8.8-2.8-9.4-7.5s2.8-8.8,7.5-9.4c0.6-0.1,1.1-0.1,1.7,0c8.9-0.2,17.9-0.2,26.8,0c3.1,0,4.6-0.7,4.7-4
	c0.2-2.1,0.6-4.3,1.1-6.3c1.2-6.7,1.2-6.7-5.8-6.7c-6.5,0-12.9,0.1-19.3,0c-6.5-0.1-9.9-3.3-9.8-8.8c0.1-5.2,3.3-8.2,9.7-8.3
	c8.6-0.1,17.2-0.1,25.8,0c2.7,0,4.2-0.5,4.6-3.6c0.4-3.5,1-6.9,1.9-10.3c0.6-2.7-0.4-3.5-3-3.5c-7.6,0.1-15.2,0.1-22.8,0
	c-6.6-0.1-9.9-3-9.9-8.5s3.5-8.6,9.9-8.6c8.6-0.1,17.2-0.1,25.8,0c2.8,0.1,4-0.9,4.5-3.7c1.2-7.9,3-15.9,4.2-24
	c0.3-3.8,3.6-6.6,7.4-6.3c1.6-0.1,3.2-0.1,4.8-0.1h299c12.5,0,14.8,2.7,12.7,15.2c-3.2,19.2-7.8,38.2-13.7,56.8
	c-1.4,4.2-0.1,5,3.8,4.8c12.5-0.3,25.2-0.1,37.7,0c13.3-1.2,25.3,8.2,27.3,21.4c6.6,26.4,13.3,52.8,19.8,79.2
	c0.5,2.9,2.5,5.4,5.3,6.3c9.1,3.5,18,7.4,27,10.9c8.6,2.6,14.1,10.9,13.3,19.8c-0.1,21.8,0,43.6-0.1,65.5c1.1,9.5-5.7,18-15.1,19.1
	c-1.3,0.1-2.6,0.2-3.8,0c-9.5,0.1-19.2,0.1-28.8,0c-2.5-0.5-4.9,1.1-5.4,3.6c0,0.2-0.1,0.4-0.1,0.5c-6.8,27.3-34.5,43.9-61.8,37.1
	c-17.5-4.4-31.4-17.7-36.6-35c-1.2-5.1-3.3-6.2-8.3-6.2c-59.5,0.1-119,0.1-178.6,0c-4,0-5.6,1-6.8,5c-7.1,27.1-35,43.4-62.1,36.2
	c-17.8-4.7-31.6-18.6-36.2-36.3c-1-3.7-2.5-5-6.3-4.8c-11.9,0.3-23.8,0.1-35.7,0.1c-9.4,0-11.8-3.1-10.2-12.3
	c7.9-42.9,15.8-85.8,23.7-128.6c0.7-3.7,0-4.6-3.6-4.5c-6.9,0.3-13.9,0-20.8,0.1c-4.7,0.7-9.4-1.6-11.7-5.8
	C-3674.1-3634.7-3674-3636.7-3674.1-3638.8z M-3511.1-3593h-110.1c-3.3,0-5.2,0.5-6,4.5c-5.2,28.5-10.7,57.2-16.3,85.6
	c-0.6,3.2-0.1,4.2,3.3,4.2c8.5-0.2,16.9-0.2,25.3,0c3.1,0.1,4.1-1,5-4c6.8-27.4,34.4-44.1,61.8-37.3c18.4,4.5,32.8,18.9,37.3,37.3
	c1,3.8,3,4,6,4c60,0,120-0.1,180.1,0.1c3.8,0,5.2-1.2,6.2-5c4.1-16.6,16.5-29.8,32.7-35c26.8-9.3,56.1,4.8,65.4,31.6
	c0.6,1.6,1,3.2,1.4,4.9c0.6,2.5,1.5,3.5,4.2,3.5c9.3-0.1,18.5-0.3,27.8,0c3.5,0.1,4-1.4,4-4.3c-0.1-20.8-0.1-41.7,0-62.5
	c0.3-2.6-1.4-5.1-4-5.6c-10.2-3.7-20.3-7.8-30.5-11.8c-2.1-0.8-4.4-1.3-6.7-1.2c-13.5,0-27.2,0.1-40.7,0
	c-14.6,0.7-27.3-10.1-28.9-24.6c-0.7-14.9-0.4-29.8-0.3-44.6c0-4.4,3.6-7.9,7.9-7.9c0.8,0,1.7,0.1,2.5,0.4c5.2,1.2,6.5,5.2,6.5,9.8
	v35.7c-1.1,6.6,3.4,12.9,10.1,14c1.3,0.2,2.6,0.2,3.8,0c9.8,0.1,19.5-0.1,29.3,0.1c4.3,0.1,5.3-0.9,4.2-5.2
	c-5.9-23.5-11.8-47.1-17.6-70.6c-2-7.8-4.5-9.8-12.4-9.9c-14,0-28.2,0.1-42.2-0.1c-3.6-0.6-7.1,1.7-7.9,5.3
	c-6.7,17.8-15.8,34.6-27,50c-17.1,25.8-46.5,40.7-77.4,39.2C-3446.6-3593.9-3478.9-3593-3511.1-3593L-3511.1-3593z M-3450-3763.9
	h-133c-12.7,0-12.7,0-14.8,12.7c-0.5,3.5,0.1,4.5,3.7,4.3c23.7-0.1,47.2-0.1,70.9-0.1c5.3,0,10.5-0.1,15.9,0c5.6,0.3,8.7,3,9.1,7.8
	c0.4,6-3,9.2-10.2,9.2h-80.9c-12.7,0-12.5,0-14.8,12.7c-0.7,4.2,0.6,4.6,4.2,4.6c27.4-0.1,54.9-0.1,82.4,0c2.2,0,4.3,0,6.5,0.3
	c3.8,0.2,6.8,3.5,6.7,7.3c0.6,6.3-3,9.5-10.9,9.5h-80.4c-12.3,0-12,0-14.5,12.4c-0.9,4.6,0.7,4.7,4.2,4.7c27.2-0.1,54.2,0,81.3,0
	c2.3-0.1,4.6,0,6.9,0.3c4.2,0.3,7.4,3.8,7.3,7.9c0.3,5.6-3.6,8.8-10.7,8.8h-80.9c-12,0-11.8,0-14.3,12.2c-1,4.5,0.1,5.2,4.3,5.2
	c27.3-0.1,54.6-0.2,81.9-0.1c2.2-0.1,4.3,0.1,6.5,0.4c3.2,0.4,5.7,3,6.1,6.2c1.2,6.6-2.4,10.4-10,10.4h-79.9c-12.5,0-12.3,0-14.9,12
	c-1,4.6,0.4,5.1,4.3,5.1c70.4-0.1,140.9-0.2,211.3-0.1c10.5,0,20.8-2.8,29.8-8.2c17.7-11.7,31.8-28.2,40.7-47.5
	c14.4-29.2,24.6-60.3,30.3-92.4c1-4.7,0.3-5.8-4.6-5.8C-3356.8-3763.8-3403.4-3763.9-3450-3763.9z M-3560.2-3456.2
	c18.9-0.4,33.9-16,33.5-34.9c-0.4-18.3-15.1-33.1-33.5-33.5c-18.9-0.4-34.5,14.6-34.9,33.5c-0.4,18.9,14.6,34.5,33.5,34.9
	C-3561.1-3456.2-3560.6-3456.2-3560.2-3456.2z M-3268.5-3456.2c18.9-0.1,34.1-15.5,34-34.4c-0.1-18.9-15.5-34.1-34.4-34
	c-18.9,0.1-34.1,15.5-34,34.4c0,0.1,0,0.2,0,0.3C-3302.4-3471.3-3287.2-3456.3-3268.5-3456.2L-3268.5-3456.2z M-3302.8-3550.5
	c-3.3,0-6.6,0.3-9.8,0c-4-0.1-7.3-3.4-7.2-7.4c-0.9-3.9,1.5-7.8,5.4-8.7c0.2,0,0.4-0.1,0.6-0.1c7.3-1.2,14.8-1.2,22.1,0.1
	c4.6,0.9,6.1,4.6,5.6,9.1c0,3.8-3,6.9-6.8,7.1C-3296.2-3550.2-3299.6-3550.5-3302.8-3550.5L-3302.8-3550.5z M-3543.2-3490.2
	c-0.3,9.4-7.9,16.8-17.2,16.9c-9.4-0.1-17-7.8-16.9-17.2c0.1-9.4,7.8-17,17.2-16.9C-3550.7-3507.3-3543.2-3499.6-3543.2-3490.2z
	 M-3268.8-3473.2c-9.4-0.2-17-7.7-17.1-17.1c0.1-9.4,7.7-16.9,17.1-16.9c9.4-0.3,17.3,7.1,17.5,16.6c0.3,9.4-7.1,17.3-16.6,17.5
	C-3268.1-3473.2-3268.4-3473.2-3268.8-3473.2L-3268.8-3473.2z"/>
</svg>
