<?xml version="1.0" encoding="utf-8"?>
<!-- Generator: Adobe Illustrator 21.1.0, SVG Export Plug-In . SVG Version: 6.00 Build 0)  -->
<svg version="1.1" id="Layer_1" xmlns="http://www.w3.org/2000/svg" xmlns:xlink="http://www.w3.org/1999/xlink" x="0px" y="0px"
	 viewBox="0 0 512 512" style="enable-background:new 0 0 512 512;" xml:space="preserve">
<style type="text/css">
	.st0{fill:#231F20;}
</style>
<path id="Group_337" transform="translate(9157.016 3307)" class="st0" d="M-8713.8-3208v-82.5c-0.9-8.2,5-15.6,13.2-16.5
	c0.3,0,0.5-0.1,0.8-0.1c8.2,0.3,14.6,7.2,14.2,15.4c0,0.3,0,0.6-0.1,0.9c0.1,21.4,0,42.9,0,64.3c0,20.3-0.1,40.7,0.1,61
	c0.1,5.8-1.8,7.6-7.5,7.5c-41.7-0.3-83.6-0.1-125.3-0.1c-10.4,0-16.3-5.2-16.3-13.8c0.1-8.1,6.7-14.6,14.7-14.5c0.5,0,1,0,1.4,0.1
	c24-0.1,48.1,0,72.1-0.1c2.9,0,7.2,1.6,8.5-1.1c1.4-2.9-2.7-5-4.6-7.1c-32.2-37-76.7-61.2-125.3-68.1
	c-115.5-19.5-225,58.4-244.5,173.9c0,0.2-0.1,0.4-0.1,0.7c-1.7,10.8-2.6,21.6-2.7,32.5c-0.3,11.9-6.2,18.9-14.8,18.6
	c-9.3-0.3-14.4-7.6-14-19.9c4.1-118,91.7-216.3,208.5-233.9c70.8-10.7,142.6,11,195.5,59.1c4.5,3.8,8.8,8,12.8,12.1
	s7.6,8.3,11.4,12.3C-8714.8-3207.4-8714.3-3207.7-8713.8-3208z M-9066.2-2914.7c29.6,36.8,70.9,62.3,117,72.3
	c64.5,15.5,132.5,0,183.9-42c43-34.2,70.6-84.1,76.7-138.6c1.4-10.2,0.3-20.6,2.2-30.7c1.3-6.4,6.8-11.1,13.4-11.4
	c6.6-0.1,12.3,4.5,13.8,10.9c0.6,2.5,0.9,5.1,0.8,7.7c-0.5,30-6.9,59.6-18.8,87.2c-37,82.4-99.7,133.5-189.1,147.8
	c-83,11.9-166.2-19.6-220.4-83.5c-2.2,2.6-1.3,5.1-1.3,7.3c-0.1,24.7,0,49.4,0,74.1c0.1,2.4-0.1,4.8-0.4,7.2
	c-1.5,7.6-8.8,12.5-16.4,11.1c-6.2-1.2-10.9-6.5-11.3-12.8c-0.1-1.3-0.1-2.6-0.1-3.9c0-41.3,0.1-82.6-0.1-123.9
	c0-6.3,1.8-8.3,8.1-8.3c41.3,0.3,82.6,0.1,123.9,0.1c10.9,0,17.1,5,17.1,13.8c0,8.8-6.6,14.4-17.4,14.6c-24.5,0.1-48.9,0-73.4,0
	C-9060.9-2916.1-9063.7-2915.8-9066.2-2914.7z"/>
</svg>
