<?xml version="1.0" encoding="utf-8"?>
<!-- Generator: Adobe Illustrator 21.1.0, SVG Export Plug-In . SVG Version: 6.00 Build 0)  -->
<svg version="1.1" id="Layer_1" xmlns="http://www.w3.org/2000/svg" xmlns:xlink="http://www.w3.org/1999/xlink" x="0px" y="0px"
	 viewBox="0 0 512 512" style="enable-background:new 0 0 512 512;" xml:space="preserve">
<style type="text/css">
	.st0{fill:#231F20;}
</style>
<path id="Group_450" transform="translate(-4767 5017)" class="st0" d="M5037.8-5014.1c9.5,1.7,19.3,2.1,28.8,3.8
	c56.8,9.7,108.5,38.9,146.2,82.4c35.3,39.3,56.9,88.9,61.7,141.5c7.1,64.1-11.3,128.4-51.1,179.1c-36,48.1-88.4,81.3-147.3,93.2
	c-72.3,16.5-148.2-0.5-206.5-46.4c-48.4-36.1-81.8-88.8-93.9-147.9c-2.5-10.8-4.1-21.7-4.8-32.7c-0.1-1.7-0.5-3.5-0.8-5.2v-29.6
	c0.9-3.5,1.3-7,1.2-10.6c11.8-112.6,96.7-203.9,208.2-223.7c9.5-1.7,19.2-2.1,28.7-3.8H5037.8z M4786.9-4761.4
	c-0.1,130.4,105.4,236.2,235.8,236.4s236.2-105.4,236.4-235.8s-105.4-236.2-235.8-236.4c-0.1,0-0.1,0-0.2,0
	C4892.9-4996.9,4787.4-4891.6,4786.9-4761.4z M4955.5-4761.4v-123.5c0-4.2,0.4-8,4.6-10.1c3.7-1.7,8.1-0.8,11,2.1
	c0.4,0.2,0.9,0.5,1.2,0.9c33.6,22.9,67.1,45.7,100.6,68.7c26.1,17.8,52.2,35.6,78.3,53.4c8.9,6.1,8.8,11.9-0.1,17.9
	c-59.8,40.8-119.6,81.6-179.4,122.4c-1.2,0.9-2.4,1.7-3.7,2.3c-3.9,2.3-9,1-11.3-2.9c-0.7-1.3-1.1-2.7-1.2-4.1
	c-0.1-1.6-0.1-3.3-0.1-4.9C4955.5-4680.1,4955.5-4720.8,4955.5-4761.4z M4972.7-4651.2c0.7-0.3,1.3-0.6,2-1
	c52.1-35.6,104.3-71.1,156.6-106.6c3.9-2.7,1.5-3.5-0.6-4.9L4976.1-4869c-1-0.7-1.9-2-3.5-1.4V-4651.2z"/>
</svg>
