<?xml version="1.0" encoding="utf-8"?>
<!-- Generator: Adobe Illustrator 21.1.0, SVG Export Plug-In . SVG Version: 6.00 Build 0)  -->
<svg version="1.1" id="Layer_1" xmlns="http://www.w3.org/2000/svg" xmlns:xlink="http://www.w3.org/1999/xlink" x="0px" y="0px"
	 viewBox="0 0 512 512" style="enable-background:new 0 0 512 512;" xml:space="preserve">
<style type="text/css">
	.st0{fill:#231F20;}
</style>
<g id="Group_232" transform="translate(3675.1 4118.023)">
	<path id="Path_401" class="st0" d="M-3163.1-3855c-1.7,10-2.5,20.1-4.7,30c-10,45.2-36.1,85.2-73.5,112.5
		c-15.4,11.4-32.5,20.4-50.6,26.6c-4.9,2.3-10.7,0.3-13.1-4.6c-2.3-4.9-0.3-10.7,4.6-13.1c0.4-0.2,0.8-0.3,1.1-0.5
		c1.5-0.8,3-1.3,4.6-1.9c13.8-5.1,26.8-11.9,38.7-20.4c36.3-25.1,61.3-63.6,69.5-107c15.1-74.4-20.6-149.8-87.6-185.3
		c-8.4-4.3-17.1-8.1-26-11.4c-4.3-1.4-7-5.9-6.1-10.4c0.4-4.1,3.5-7.5,7.6-8.2c2.1-0.5,4.4-0.3,6.4,0.6
		c47.8,16.4,87.1,51.2,109.2,96.7c10.6,21.2,17,44.2,18.9,67.8c0.2,1.5,0.5,2.9,0.9,4.4C-3163.1-3871-3163.1-3863-3163.1-3855z"/>
	<path id="Path_402" class="st0" d="M-3379.9-3862v192.3c0.3,7.4-1.7,14.7-5.7,20.9c-9.4,13.6-28.1,17-41.7,7.5
		c-1.2-0.8-2.3-1.7-3.3-2.7c-42.1-38.7-84.2-77.5-126.4-116.3c-2.5-2.4-5.9-3.7-9.4-3.5c-31.6,0.1-63.3,0.2-95,0.1
		c-10.6,0-13.8-3-13.8-13.6v-179.3c0-10.4,3.1-13.5,13.4-13.5h96.5c3,0.1,5.9-1,8.1-3c42.5-35.8,84.9-71.7,127.3-107.7
		c8.5-7.8,20.8-9.8,31.3-4.9c11,4.3,18.3,14.9,18.5,26.7c0.1,2.4,0.1,4.6,0.1,7L-3379.9-3862z M-3399.4-3861.6v-194.9
		c0.2-4.6-2.4-8.9-6.6-10.9c-4.3-1.8-9.2-0.7-12.2,2.7c-41.6,35.4-83.3,70.6-125.1,105.8c-2.5,1.9-3.9,5-3.6,8.1
		c0.3,12.6,0.1,25.4,0,38c-0.1,7.5-4.5,11.9-10.9,11.2c-5.5-0.6-8.7-4.6-8.9-11.4c-0.1-10.9-0.1-21.6,0-32.5
		c0.1-3.8-0.6-5.2-4.9-5.1c-26.4,0.3-52.6,0.1-79,0c-3.9,0-4.7,1.3-4.7,4.9c0.1,52.6,0.1,105.3,0,157.9c0,3.8,1,4.7,4.7,4.7
		c26.4-0.1,52.6-0.1,79,0c3.6,0,4.9-0.9,4.7-4.7c-0.3-10.9-0.1-21.6-0.1-32.5c0-7,3.1-11,8.4-11.7c6.7-0.9,11.4,3.4,11.4,11.1
		c0.1,13.1,0.1,26.4,0,39.5c-0.2,2.3,0.8,4.5,2.6,6c42.4,38.9,84.7,77.7,127,116.6c2.6,2.9,6.8,4,10.5,2.6c4-1.2,6.8-4.6,7.3-8.7
		c0.3-2.3,0.4-4.7,0.4-7C-3399.4-3735-3399.4-3798.2-3399.4-3861.6z"/>
	<path id="Path_403" class="st0" d="M-3252.2-3866.7c0.1,58.2-37.8,109.6-93.3,126.7c-4.9,2.6-10.9,0.8-13.5-4.1
		c-2.6-4.9-0.8-10.9,4.1-13.5c1-0.5,2-0.9,3.1-1c16.1-5,30.9-13.5,43.5-24.7c46.1-42.2,49.2-113.8,7-159.9
		c-12.5-13.6-28.1-24-45.5-30.1c-2-0.8-4.1-1.3-6.1-2.1c-5.2-1.6-8.1-7-6.6-12.2c1.6-5.1,7.1-8,12.2-6.4c0.2,0.1,0.4,0.1,0.6,0.2
		c14.1,4,27.4,10.5,39.2,19.2c28.7,20.5,48.1,51.5,54,86.2c0.7,3.3,1.1,6.6,1.3,9.9C-3251.9-3874.7-3252.2-3870.7-3252.2-3866.7z"/>
</g>
</svg>
