<?xml version="1.0" encoding="utf-8"?>
<!-- Generator: Adobe Illustrator 21.1.0, SVG Export Plug-In . SVG Version: 6.00 Build 0)  -->
<svg version="1.1" id="Layer_1" xmlns="http://www.w3.org/2000/svg" xmlns:xlink="http://www.w3.org/1999/xlink" x="0px" y="0px"
	 viewBox="0 0 512 512" style="enable-background:new 0 0 512 512;" xml:space="preserve">
<g>
	<path d="M513,261c-2.1,5-5.9,8.7-9.6,12.5C453,324.4,402.6,375.3,352.2,426.2c-3.2,3.3-6.5,6.2-11.3,6.8
		c-6.9,0.8-13.1-2.3-16.3-8.2c-3.2-6-2.4-13.5,2.4-18.6c7.2-7.6,14.7-15,22.1-22.5c34.9-35.3,69.9-70.6,104.8-105.9
		c1.2-1.2,3-2.1,3.3-4.2c-2-0.9-4-0.5-5.9-0.5c-143.3,0-286.5-0.1-429.8,0.1c-9.9,0-16.7-3.1-20.4-12.3c0-2.7,0-5.3,0-8
		c4-9.3,11.2-12.1,21.1-12.1c143,0.2,286,0.1,428.9,0.1c2,0,4,0,6.3,0c-0.6-2.4-2.4-3.5-3.7-4.8c-41.5-41.9-83-83.9-124.5-125.7
		c-3.8-3.8-6.6-7.9-6.4-13.5c0.2-6.6,3.2-11.5,9.1-14.3c6-2.9,11.7-1.9,16.8,2.2c1.6,1.2,2.9,2.7,4.3,4.2
		c51.1,51.6,102.2,103.3,153.4,154.9c2.7,2.8,4.5,6.1,6.6,9.2C513,255.7,513,258.3,513,261z"/>
</g>
</svg>
