<?xml version="1.0" encoding="utf-8"?>
<!-- Generator: Adobe Illustrator 21.1.0, SVG Export Plug-In . SVG Version: 6.00 Build 0)  -->
<svg version="1.1" id="Layer_1" xmlns="http://www.w3.org/2000/svg" xmlns:xlink="http://www.w3.org/1999/xlink" x="0px" y="0px"
	 viewBox="0 0 512 512" style="enable-background:new 0 0 512 512;" xml:space="preserve">
<style type="text/css">
	.st0{fill:#231F20;}
</style>
<path id="Group_458" transform="translate(-4447.916 6075.559)" class="st0" d="M4620.9-5564.6c-2.5-1.2-5.2-2.2-7.7-3.5
	c-7.7-3.9-12.6-11.7-12.8-20.3c-0.2-26.6-0.4-53.4,0-80c0.1-12.1,9.3-22.2,21.3-23.6c3.5-0.6,4.3-1.8,4.1-5
	c-0.2-6.8-0.1-13.7,0-20.4c-0.5-8.8,4-17.1,11.5-21.5c20.3-12.1,34-32.7,37.2-56.1c1-4.3,0.1-5.9-3.9-7.8
	c-18.4-8.9-34.4-22-46.8-38.2c-1.6-1.9-3.2-3.9-4.9-6c-2.6,4.1-7.2,6.6-12,6.5c-5-0.4-9.4-3.3-11.7-7.8
	c-11.4-19.2-25.5-36.6-41.8-51.9c-11.4-10.7-24.1-19.9-36.1-29.9c-12.3-8.8-21.1-21.5-24.9-36.1c-6.4-22.8,0.6-47.2,18.1-63.2
	c9.2-8,21-12.5,33.3-12.7c3.9-0.2,4.6-1.4,4.4-5.1c-2-14.2,7.9-27.2,22-29.2c1.8-0.3,3.7-0.3,5.5-0.2h256
	c14.2-1.1,26.7,9.6,27.7,23.8c0.1,1.8,0.1,3.6-0.1,5.3c-0.1,2.5-0.9,4.6,3.4,5c30.7,0.9,55,26.5,54.3,57.2
	c0.7,21.6-9.3,42.1-26.8,54.8c-17.4,12.9-33.7,27.1-48.8,42.7c-10.8,12.1-20.5,25.2-29,39c-3,6.5-10.4,9.5-17.1,6.9
	c-2.5-1.4-4.8-3.3-6.7-5.4c-7,9.2-14.9,17.8-23.4,25.6c-8.7,8-18.6,14.5-29.4,19.2c-2.9,1.2-3.4,2.7-2.8,5.7
	c2.6,14.5,8.3,28.2,16.7,40.3c4.8,6.3,10.9,11.5,17.9,15.2c9.5,4.9,15.2,14.9,14.5,25.6c-0.1,6.5,0,12.9,0,19.5
	c0,2.3,0.5,3.4,3.2,3.9c13.4,1.2,23.5,12.8,22.7,26.3c0.2,25,0.2,50,0,75c0.5,11.9-7.4,22.5-19,25.4c-0.5,0.3-1.1,0.6-1.5,1H4620.9z
	 M4704.2-6050.9c-41.2,0-82.5,0.1-123.7-0.1c-5.3,0-6.7,1.6-6,6.4c1,7.4,1.1,15,2.3,22.4c8.1,51.4,26.2,100.7,53.4,145
	c10.2,17.6,23.9,32.9,40.2,45c18.6,14.6,44.4,15.4,63.9,2.2c13.1-8.5,24.4-19.5,33.4-32.3c16.9-23.3,30.5-48.7,40.5-75.7
	c13.8-34,22.4-69.9,25.5-106.5c0.4-4.8-0.5-6.5-6-6.4C4786.6-6050.7,4745.4-6050.9,4704.2-6050.9z M4704.2-5590.3
	c24.2,0,48.3-0.1,72.5,0.1c4.6,0,5.6-1.3,5.6-5.6c-0.2-22.1-0.2-44.3,0-66.4c0-3.8-1.1-4.8-4.9-4.7c-48.9,0.1-97.7,0.1-146.5,0
	c-3.9,0-4.7,1.2-4.7,4.8c0.1,22.3,0.1,44.7,0,66.9c0,4,1.1,5.1,5.1,5.1c24.2-0.3,48.5-0.1,72.9-0.1V-5590.3z M4704.1-5692.5
	c15.9,0,31.7-0.1,47.6,0.1c3.3,0,4.5-0.7,4.3-4.1c-0.2-5.9-0.2-12,0-18c0.3-2.4-1.1-4.6-3.3-5.4c-11.3-6.4-20.8-15.5-27.6-26.6
	c-8.6-13.8-14.5-29-17.5-44.9c-0.4-1.8-0.4-3.6-3.5-3.6c-3.2,0-3.2,1.8-3.5,3.6c-1.6,8.2-3.9,16.2-6.9,24c-6.8,20.2-20.6,37.3-39,48
	c-1.7,0.8-2.7,2.6-2.4,4.5c0.1,6.2,0.2,12.3,0,18.5c-0.1,3.3,1,4.3,4.3,4.1C4672.4-5692.5,4688.3-5692.5,4704.1-5692.5z
	 M4584-5906.5c0-2.1-0.6-4.2-1.7-5.9c-7.8-18.2-14.5-36.9-19.9-55.9c-4.3-14.7-7.7-29.6-10.3-44.7c-0.4-1.8-0.2-3.6-3-3.6
	c-8.1-0.6-16.2,2.1-22.4,7.4c-13.3,15.1-13.1,37.8,0.5,52.6C4547-5940.9,4566-5924.2,4584-5906.5z M4823.9-5907.7
	c0.5,0.4,0.9,0.7,1.3,1.1c5.7-5.9,11.2-12,17.1-17.5s12.6-10.5,19-15.7c5.6-4.6,11.1-9.3,16.7-13.8c11.4-9.1,16.3-24.1,12.6-38.2
	c-1.9-14.7-14.7-25.4-29.5-24.7c-3,0-4.4,0.7-4.9,4c-4.3,24.6-10.8,48.7-19.2,72.2C4833-5929.4,4828.5-5918.5,4823.9-5907.7z"/>
</svg>
