<?xml version="1.0" encoding="utf-8"?>
<!-- Generator: Adobe Illustrator 21.1.0, SVG Export Plug-In . SVG Version: 6.00 Build 0)  -->
<svg version="1.1" id="Layer_1" xmlns="http://www.w3.org/2000/svg" xmlns:xlink="http://www.w3.org/1999/xlink" x="0px" y="0px"
	 viewBox="0 0 512 512" style="enable-background:new 0 0 512 512;" xml:space="preserve">
<style type="text/css">
	.st0{fill:#231F20;}
</style>
<path id="Path_682" class="st0" d="M511.9,256.7v-200c2.1-29.2-20-54.5-49.1-56.6c-2.5-0.2-5-0.2-7.4,0H57.4C52.2,0,47,0.4,41.9,1.4
	C16.3,7.2-1.4,30.6,0.1,56.8v400c-1.2,29.1,21.4,53.6,50.5,54.8c0.6,0,1.3,0,1.9,0c44.8,0.3,90.3,0.3,134.2,0.1h82.7
	c7,0.7,13.3-4.4,14-11.4c0.1-0.9,0.1-1.9,0-2.8c-0.1-67.2-0.1-127.2,0-183.2c0.8-7-4.1-13.3-11.1-14.1c-1.2-0.1-2.4-0.1-3.7,0.1
	c-8.3,0.1-16.8,0.1-25.1,0.1c-7.9,0-16.1,0-24.2,0.1c0.3-17.4,0.3-35.4,0-53.2c7,0.1,14,0,20.9,0c9,0,18.4,0,27.5,0.1
	c4.2,0.5,8.5-0.8,11.7-3.7c2.9-3.2,4.3-7.5,3.9-11.8c0-5.5,0-10.9-0.1-16.6c-0.1-15.4-0.3-31.3,0.7-46.9c0.8-36.8,28.5-67.4,65-72
	c18.7-2.3,37.6-2.5,56.3-0.4c3.1,0.1,6,0.4,9.1,0.6v10.9c0,11.5,0,23.4,0.1,35.2c-11.2-0.1-23.2-0.3-35.2,0.3
	c-21.2-1.3-39.3,14.8-40.6,36c-0.1,1.8-0.1,3.6,0.1,5.4c-0.1,8-0.1,16.1-0.1,24.2c0,8,0,16.3-0.1,24.3c-1,6.9,3.8,13.4,10.8,14.3
	c1.2,0.2,2.5,0.2,3.7,0c8.3-0.1,16.8-0.1,25,0c10.4,0,21.2,0,31.9-0.1h0.7c-2.7,16.3-4.9,33.8-6.9,53.2h-0.3
	c-7.3-0.1-14.7-0.1-21.9,0c-9,0-18.1,0-27.2-0.1c-4.3-0.5-8.5,0.8-11.8,3.7c-2.9,3.4-4.3,7.8-3.9,12.2c0.3,59.4,0.3,119.9,0,179.7
	c-0.4,4.4,1,8.7,3.9,12.1c3.1,2.7,7.2,4.1,11.4,3.8h0.4c21.8-0.1,43.9-0.1,65.4-0.1h36.4c4.7,0.1,9.4-0.3,14-1.3
	c25.3-5.6,42.9-28.6,41.8-54.4V313.9L511.9,256.7z M490.5,347.8v106.6c2.1,17.9-10.6,34.1-28.5,36.2c-2.5,0.3-5,0.3-7.4,0h-30.1
	c-21.2,0-43.1,0-64.7,0.1h-0.1c0.3-53.9,0.3-110.7,0-168.9c8.1,0.1,16.3,0.1,24.2,0.1c8.3,0,16.8,0,25.3,0.1
	c7.4,0.9,14.1-4.4,14.9-11.8c0.1-0.5,0.1-1,0.1-1.5c1.7-14.2,3.7-28.6,5.5-42.5l2.9-22.7c1.2-4.4,0.4-9.1-2.1-12.9
	c-3.4-3.1-8.1-4.5-12.6-3.8h-13.3c-14.6,0-29.8-0.1-44.6,0.1c0.3-8.1,0.3-16.3,0.1-24.2v-14.4c0.1-17.7,5.6-23.2,23.6-23.4
	c13.5-0.1,25.8-0.1,37.6,0c4,0.3,8-1,11.1-3.7c2.6-2.9,4-6.7,3.7-10.5c-0.3-20.5-0.1-41.6,0-59.5c1-6.8-3.6-13.1-10.4-14.2
	c-0.6-0.1-1.1-0.1-1.7-0.1c-4.3-0.3-8.4-0.6-12.6-1c-21.9-2.6-44.1-2.5-66,0.4c-45.5,6.4-80,44.2-82.2,90.1c-1.3,15.9-1.1,31.7-1,47
	c0,4.4,0.1,8.7,0.1,13.2v0.1H262c-9-0.1-18.1-0.1-27-0.1h-22.3c-4-0.3-7.9,1-10.8,3.7c-2.6,2.9-3.9,6.8-3.7,10.7
	c0.3,21.1,0.3,43.1,0,67.2c-0.2,3.8,1,7.5,3.5,10.4c2.9,2.6,6.7,3.9,10.5,3.5c8-0.1,16.3-0.1,24.2-0.1c8.4,0,17.1,0,25.7-0.1
	c-0.1,54.2-0.1,109.3,0,168.9c-34.5-0.1-69.5-0.1-103.4-0.1c-34.4,0-69.9,0-104.9-0.1C36.4,491,21.9,477.3,21.5,460
	c0-0.7,0-1.4,0-2.1c-0.1-142.3-0.1-274.4,0-403.5c-0.8-17.4,12.7-32.2,30.2-33c1.1-0.1,2.3,0,3.4,0h201.5c18.8,0,37.8,0,56.7,0.1
	c46.3,0.1,94.2,0.3,141.3-0.4c9.7-0.3,19.1,3.4,26.1,10.1c6.9,7.1,10.7,16.7,10.5,26.7C490.5,154.5,490.5,252.8,490.5,347.8z"/>
</svg>
