<?xml version="1.0" encoding="utf-8"?>
<!-- Generator: Adobe Illustrator 21.1.0, SVG Export Plug-In . SVG Version: 6.00 Build 0)  -->
<svg version="1.1" id="Layer_1" xmlns="http://www.w3.org/2000/svg" xmlns:xlink="http://www.w3.org/1999/xlink" x="0px" y="0px"
	 viewBox="0 0 512 512" style="enable-background:new 0 0 512 512;" xml:space="preserve">
<style type="text/css">
	.st0{fill:#231F20;}
</style>
<path id="icon-leaderboard" transform="translate(9158 2899)" class="st0" d="M-9158-2725.2c2.6-5.4,8.3-8.5,14.2-7.8
	c48,0.1,96,0,144,0.1c4.5,0,5.9-1.1,5.7-5.7c-0.3-29-0.1-58-0.1-87c0-10.6,3.3-13.9,13.6-13.9h157.1c10.4,0,13.6,3.3,13.6,13.9
	c0,49,0.1,98-0.1,147c0,4.4,1.1,5.5,5.5,5.5c48-0.1,96-0.2,144-0.1c11.4,0,14.5,3.3,14.5,14.6v210.9c0,11.5-3,14.5-14.5,14.5
	c-161,0-322,0-483,0.1c-5.9,0.8-11.6-2.1-14.5-7.3C-9158-2535.2-9158-2630.2-9158-2725.2z M-8973.8-2636.2c0,59.1,0,118.2-0.1,177.4
	c0,4.3,0.9,5.7,5.5,5.7c44.4-0.1,88.6-0.3,133,0c4.6,0,5.4-1.5,5.4-5.7c-0.1-118.2-0.1-236.5,0-354.9c0-4.3-0.9-5.7-5.5-5.7
	c-44.4,0.1-88.6,0.3-133,0c-4.6,0-5.4,1.5-5.4,5.7C-8973.8-2754.5-8973.7-2695.3-8973.8-2636.2z M-8994.1-2582.9
	c0-41.5,0-83,0.1-124.4c0-4.1-1-5.2-5.2-5.2c-44.5,0.1-89,0.1-133.4,0c-4.3,0-5.1,1.4-5.1,5.4c0.1,82.8,0.1,165.5,0,248.4
	c0,4.4,1.1,5.5,5.5,5.5c44.2-0.1,88.6-0.3,132.9,0c4.6,0,5.4-1.5,5.4-5.7C-8994.1-2500.2-8994.1-2541.5-8994.1-2582.9z
	 M-8666.4-2553c0-31.4-0.1-62.6,0.1-94c0-4.5-1.1-5.9-5.7-5.9c-44.1,0.1-88.4,0.1-132.5,0c-4.4,0-5.5,1.1-5.5,5.5
	c0.1,62.9,0.1,125.7,0,188.5c0,4.3,0.9,5.7,5.4,5.5c44.1-0.3,88.4-0.1,132.5,0c4.4,0,5.9-1,5.9-5.7
	C-8666.5-2490.2-8666.4-2521.6-8666.4-2553L-8666.4-2553z M-8904.8-2662.4c-1.5,0.8-3,1.6-4.6,2.1c-2.7,0.8-5.5-0.3-7-2.6
	c-2-2-2-5.3-0.1-7.4c4.4-5,9.2-9.6,14.2-14c2.8-2.4,7-2,9.4,0.8c0.8,0.9,1.3,2,1.5,3.2c0.3,1.1,0.4,2.3,0.4,3.5v74.4
	c0,3.8-0.8,7.1-5,8.1c-5,1.3-8.4-1.7-8.5-7.5c-0.1-8.5,0-17.1,0-25.5C-8904.8-2638.7-8904.8-2650.1-8904.8-2662.4z M-8920.9-2804.5
	c8.1,0,16.3-0.1,24.5,0c7.4,0.1,11.6,4,11.5,10.3c-0.1,6.3-4.5,10-11.7,10c-16.5,0.1-33,0.1-49.4,0c-5.7,0.8-11-3.2-11.8-8.9
	c0-0.4-0.1-0.7-0.1-1.1c-0.1-6.1,4.4-10.1,11.6-10.3C-8937.9-2804.6-8929.4-2804.5-8920.9-2804.5z M-8856.3-2784.1
	c-4.2,0.7-8.4-0.6-11.5-3.5c-2.3-2.5-3.1-6-2.1-9.2c1.4-5.9,6.5-8.1,17.4-7.5c5.2-0.2,9.7,3.6,10.4,8.7c0.8,5.4-2.9,10.4-8.2,11.2
	C-8852.3-2784.1-8854.2-2784.2-8856.3-2784.1z M-9080.9-2557h33.3c1.8,0,3.7,0,5.5,0.3c3.2,0.1,5.8,2.8,5.7,6.1c0,0.1,0,0.2,0,0.3
	c0.4,3.1-1.7,6-4.8,6.4c-0.3,0-0.6,0.1-0.9,0.1c-16,0.6-32,0.6-47.9,0c-4.3-0.3-5.7-3.5-5.5-7.5c0.3-8.1,3.9-15.7,9.9-21.1
	c6.3-5.7,13.3-10.6,20.8-14.6c3.3-1.9,6.5-4.1,9.4-6.6c7-5.8,8-16.1,2.2-23.1c-5.8-7-16.1-8-23.1-2.2c-3.3,2.7-5.4,6.5-5.9,10.7
	c-0.4,3-0.6,6-3.9,7.6c-3.2,1.7-7.1,0.5-8.7-2.7c-0.7-1.3-0.9-2.8-0.6-4.2c0.1-11.2,6.8-21.2,17.1-25.6c9.6-5,21.2-3.9,29.8,2.7
	c13.4,9.5,16.5,28,7,41.3c-1.3,1.9-2.8,3.6-4.5,5.1c-7.1,6.1-14.7,11.4-22.9,16C-9074-2565.6-9078.1-2561.8-9080.9-2557z
	 M-8738.4-2509.4c-8.4,0-16.5-3.2-22.5-9.1c-3.5-3.4-4.1-6.9-1.5-9.6c2.3-2.8,6.5-3.2,9.3-0.9c0.2,0.1,0.3,0.3,0.5,0.4
	c2.5,2.2,5.4,4,8.5,5.1c10.5,3.3,21.7-2.6,24.9-13.1c0.1-0.3,0.2-0.5,0.2-0.8c2.8-10.5-3.4-21.4-14-24.2c-0.5-0.1-0.9-0.2-1.4-0.3
	c-1.6-0.4-3.4-0.4-5-0.6c-3.5-0.8-5.8-4.2-5-7.8c0.5-2.3,2.2-4.2,4.5-4.9c1-0.3,2-0.3,3-0.5c3.6-0.8,5.8-4.4,5-8
	c-0.1-0.4-0.2-0.7-0.3-1c-1.5-3.2-5.3-4.7-8.5-3.2c-0.2,0.1-0.5,0.2-0.7,0.4c-1.3,0.6-2.2,1.4-3.5,2c-2.5,2-6.1,1.5-8.1-1
	c-0.1-0.1-0.2-0.3-0.3-0.4c-2-2.6-1.7-6.4,0.8-8.6c5.3-5.5,13.3-7.5,20.6-5.1c10.2,3.3,15.7,14.2,12.4,24.4c-0.2,0.5-0.3,1-0.5,1.4
	c-1.4,2.1-0.8,4.9,1.3,6.2c0.2,0.1,0.3,0.2,0.5,0.3c14.5,10.8,17.4,31.3,6.5,45.8C-8718-2514.1-8727.9-2509.3-8738.4-2509.4
	L-8738.4-2509.4z"/>
</svg>
