<?xml version="1.0" encoding="utf-8"?>
<!-- Generator: Adobe Illustrator 21.1.0, SVG Export Plug-In . SVG Version: 6.00 Build 0)  -->
<svg version="1.1" id="Layer_1" xmlns="http://www.w3.org/2000/svg" xmlns:xlink="http://www.w3.org/1999/xlink" x="0px" y="0px"
	 viewBox="0 0 512 512" style="enable-background:new 0 0 512 512;" xml:space="preserve">
<style type="text/css">
	.st0{fill:#231F20;}
</style>
<path id="Group_456" transform="translate(-4285.097 5289)" class="st0" d="M4794.2-5188.4c-3,8.6-8.2,16.2-15.1,22
	c-31.5,31.4-63,62.8-94.5,94.3c-2.5,2.3-3.9,5.6-3.7,9c0.1,67.4,0.1,134.8,0,202.3c0,2.1,0,4.3-0.3,6.4c-0.3,4.2-3.5,7.7-7.7,8.4
	c-2.3,0.5-4.6,0.6-6.9,0.5h-363c-12.2,0-15.2-3-15.2-15.1V-5224c-0.2-11.5,3.1-14.7,14.4-14.7h364c11.3,0,14.5,3.2,14.6,14.2v51.3
	c1.8-0.6,3.3-1.8,4.4-3.3c15.5-15.3,30.8-30.7,46.2-46.1c10.1-12.5,28.4-14.5,40.9-4.4c1.7,1.4,3.2,2.9,4.5,4.6
	c7.9,6.2,13.9,14.7,17.1,24.2C4794.2-5195.1,4794.2-5191.7,4794.2-5188.4z M4660.6-5046.7c-0.5-0.4-1.1-0.7-1.6-1.1
	c-0.9,1.5-1.9,3-3.1,4.3c-41.8,41.9-83.6,83.8-125.5,125.6c-2.6,2.7-5.8,4.8-9.4,6.1c-17.1,5.6-34,11.3-51.1,17.1
	c-4.3,2.1-9.4,1.3-12.9-2c-3-3.4-3.7-8.4-1.6-12.5c5.6-16.6,11.1-33,16.4-49.7c1.4-4.4,3.9-8.3,7.2-11.5
	c59.3-59.2,118.7-118.5,178-177.9c2.3-2.1,3.5-5.1,3.5-8.2c-0.1-18.8-0.3-37.6,0-56.4c0.1-4.7-1.4-5.6-5.8-5.6
	c-113.7,0.1-227.4,0.1-341.1,0c-4.6,0-6.2,0.9-6.2,5.8c0.1,113.7,0.1,227.4,0,341.1c0,4.3,1,5.8,5.6,5.8
	c113.9-0.1,227.7-0.1,341.6,0c4.4,0,5.6-1,5.6-5.6c-0.1-57-0.2-114-0.1-171.1C4660.5-5043.9,4660.6-5045.3,4660.6-5046.7z
	 M4480.4-4919.6c10.9-3.6,20.6-6.9,30.5-10.1c3-0.9,5.6-2.6,7.8-4.8c54.4-54.4,108.8-108.8,163.1-163.3
	c14.8-14.8,29.5-29.7,44.5-44.4c2.7-2.6,2.7-4.1,0-6.6c-5.8-5.3-11.4-11-16.9-16.9c-2.3-2.6-3.7-3-6.6-0.3
	c-69.4,69.6-138.9,139.2-208.4,208.8c-1.4,1.2-2.4,2.7-3.1,4.3C4488-4942,4484.3-4931.3,4480.4-4919.6z M4754.1-5213.1
	c-2.7,0.1-5.2,1.4-6.9,3.5c-8.2,8.2-16.2,16.3-24.5,24.4c-1.9,1.7-1.9,2.8,0,4.7c6.3,6.1,12.5,12.2,18.4,18.5c2,2.1,3.2,2,5.1,0
	c7.9-8.2,15.9-16.1,24-24.1c2-1.7,3.2-4.2,3.5-6.8C4774-5198.8,4759.8-5213.2,4754.1-5213.1z M4456.8-5155.5h-87.5
	c-9.3,0-14.2-3.6-14.1-10.1c0.2-6.6,5.1-10,14.2-10h175.4c1.5-0.1,3,0,4.4,0.1c5.4,0.2,9.6,4.7,9.5,10.1c0,5.4-4.3,9.7-9.6,9.8
	c0,0-0.1,0-0.1,0c-1.9,0.1-3.6,0.1-5.4,0.1H4456.8z M4452.5-5096.5h-86.1c-5.9,0.3-10.9-4.1-11.2-10c0-0.1,0-0.1,0-0.2
	c0-5.6,4.3-9.6,11.1-10.1c1.4-0.1,2.6,0,4,0h164.2c2.3,0,4.6,0.1,6.9,0.5c4.6,0.7,8,4.6,8,9.3c0,4.6-3,8.6-7.4,9.8
	c-2.1,0.5-4.2,0.7-6.3,0.6L4452.5-5096.5z M4420.6-5037.9c-18.2,0-36.2,0.1-54.4,0c-5.4,0.6-10.3-3.3-10.9-8.7
	c-0.2-2.1,0.2-4.3,1.3-6.1c2.1-3.5,6-5.4,10-5.1h107.8c8.8,0,14,6.4,11.1,13.6c-1.8,4.4-6.4,7.1-11.1,6.4
	C4456.4-5037.9,4438.5-5037.9,4420.6-5037.9z M4396.6-5000.3h28.7c2.1,0,4.3,0.3,6.3,0.9c4.2,1.3,7,5.4,6.6,9.8
	c-0.1,4.3-3.1,8-7.3,8.9c-2.1,0.5-4.2,0.7-6.3,0.6h-56.7c-7.9-0.1-12.7-4.1-12.7-10.3s5-10,12.7-10
	C4377.4-5000.4,4387.1-5000.3,4396.6-5000.3z M4597.6-5155.5c-5.9,0.3-11.5,0-14.1-6.6c-2-5.1,0.6-10.9,5.7-12.8
	c1-0.4,2-0.6,3.1-0.6c3.1-0.3,6.3-0.3,9.4-0.1c5.5-0.3,10.3,3.9,10.6,9.4c0,0.1,0,0.3,0,0.4c0.2,5.4-4.1,10-9.5,10.1
	c-0.3,0-0.6,0-0.8,0C4600.5-5155.5,4599.1-5155.4,4597.6-5155.5z"/>
</svg>
