<?xml version="1.0" encoding="utf-8"?>
<!-- Generator: Adobe Illustrator 21.1.0, SVG Export Plug-In . SVG Version: 6.00 Build 0)  -->
<svg version="1.1" id="Layer_1" xmlns="http://www.w3.org/2000/svg" xmlns:xlink="http://www.w3.org/1999/xlink" x="0px" y="0px"
	 viewBox="0 0 512 512" style="enable-background:new 0 0 512 512;" xml:space="preserve">
<g>
	<path d="M23.7,274.5c6.4-0.3,11.7,3.3,16.6,8.1c41.9,41.3,83.9,82.5,125.6,124c4.4,4.4,6.6,3.8,10.7-0.2
		c97.9-97.5,196-194.8,293.9-292.3c5-5,10.2-9,17.7-9c9.1,0,15.7,4,19.6,12.1c4,8.2,2.4,15.9-3.2,22.8c-1.4,1.7-3,3.2-4.6,4.7
		c-103.5,102.8-207,205.6-310.5,308.4c-12.6,12.6-23.8,12.6-36.5,0.1c-47.6-46.9-95.1-93.8-142.7-140.6C5.5,308,2,303,1.9,296.1
		C1.7,284,10.8,274.6,23.7,274.5z"/>
</g>
</svg>
