<?xml version="1.0" encoding="utf-8"?>
<!-- Generator: Adobe Illustrator 21.1.0, SVG Export Plug-In . SVG Version: 6.00 Build 0)  -->
<svg version="1.1" id="Layer_1" xmlns="http://www.w3.org/2000/svg" xmlns:xlink="http://www.w3.org/1999/xlink" x="0px" y="0px"
	 viewBox="0 0 512 512" style="enable-background:new 0 0 512 512;" xml:space="preserve">
<style type="text/css">
	.st0{fill:#231F20;}
</style>
<path id="Group_454" transform="translate(-4424.042 5795.8)" class="st0" d="M4612.4-5290.1c-8.8-5.9-9.4-7.5-7.2-18.5
	c13-64.6,26.1-129.2,39.2-193.8c0.8-4-0.3-4.5-3.7-4.5c-28.7,0.1-57.3,0.2-86,0.1h-3.7c-5.9,0-10.6-4.7-10.6-10.6
	c0-1.5,0.3-2.9,0.9-4.3c24.9-87.3,49.9-174.5,75-261.7c0.8-5.3,5.8-9,11.2-8.1c0.9,0.1,1.8,0.4,2.6,0.8c6.1,2.1,8.4,7.4,6.2,14.8
	c-22.5,77.6-45.2,155.2-67.9,232.9l-2.1,7c-1.9,6.4-1.9,6.4,4.3,6.4h85.1c10.7,0,14.9,5.6,12.6,16.5c-10.3,50-20.5,100.1-30.6,150.3
	c-0.4,1-0.3,2.3,0.3,3.2c49.9-79.3,99.9-158.6,149.8-237.8c-1.6-0.7-3.4-0.9-5.1-0.6h-68c-11.4,0-16.2-7.7-11.3-18.8
	c21.4-49,42.8-98,64.3-147c2.4-5.6,2.4-5.6-3.3-5.6h-93.4c-9,0-13.3-4.5-12.5-12.8c0.1-4.6,3.4-8.6,8-9.4c2-0.3,4-0.5,6-0.5h111.9
	c11.8,0,16.4,7.6,11.4,19l-64.1,147c-2.2,5.1-2.2,5.1,3,5.1h70.3c2-0.1,4,0.1,6,0.4c5.6,0.8,9.6,6.1,8.7,11.7
	c-0.1,0.8-0.3,1.6-0.6,2.4c-0.7,2.1-1.7,4.2-2.9,6.1c-63.5,101-126.9,202-190.3,303c-2.2,2.8-4.8,5.3-7.6,7.5
	C4616.3-5290.1,4614.3-5290.2,4612.4-5290.1z M4646.9-5676c-0.3,1.6-0.7,3.2-1.2,4.8c-10.2,32.5-20.4,65-30.6,97.4
	c-0.2,0.8-0.5,1.6-0.8,2.3c-2.2,6.4-6.8,9.6-11.4,8c-6.4-1.9-10.1-8.6-8.2-15c0-0.1,0-0.1,0.1-0.2c10.7-34.3,21.5-68.8,32.4-103.1
	c1.2-4.8,5.9-7.9,10.7-7.2C4643.5-5687.2,4647.2-5681.9,4646.9-5676z"/>
</svg>
