<svg xmlns="http://www.w3.org/2000/svg" viewBox="9702 3972 36 44.177">
  <defs>
    <style>
      .cls-1 {
        fill: #666;
      }
    </style>
  </defs>
  <g id="Group_351" data-name="Group 351" transform="translate(9702 3972)">
    <path id="Path_738" data-name="Path 738" class="cls-1" d="M31.082,16.451V11.857C31.082,5.32,25.212,0,17.994,0S4.9,5.32,4.9,11.864a.813.813,0,0,0,.816.816.823.823,0,0,0,.823-.816c0-5.637,5.138-10.225,11.449-10.225S29.449,6.22,29.449,11.864v4.5H5.916A5.918,5.918,0,0,0,0,22.276V38.261a5.922,5.922,0,0,0,5.916,5.916H30.084A5.922,5.922,0,0,0,36,38.261V22.276A5.93,5.93,0,0,0,31.082,16.451Zm3.272,21.81a4.281,4.281,0,0,1-4.276,4.276H5.909a4.281,4.281,0,0,1-4.276-4.276V22.276A4.281,4.281,0,0,1,5.909,18H30.078a4.281,4.281,0,0,1,4.276,4.276Z"/>
    <path id="Path_739" data-name="Path 739" class="cls-1" d="M230.472,353.5a3.275,3.275,0,0,0-3.272,3.272v4.9a3.272,3.272,0,1,0,6.544,0v-4.9A3.271,3.271,0,0,0,230.472,353.5Zm1.639,8.177a1.633,1.633,0,1,1-3.266,0v-4.9a1.633,1.633,0,0,1,3.266,0Z" transform="translate(-212.479 -330.595)"/>
  </g>
</svg>
