<svg xmlns="http://www.w3.org/2000/svg" viewBox="9702 3568 36 35.996">
  <g id="Group_352" data-name="Group 352" transform="translate(9702.045 3568)">
    <path id="Path_740" data-name="Path 740" d="M17.949,36H.835c-.675,0-.876-.2-.876-.892V.884c0-.1-.008-.185,0-.281A.647.647,0,0,1,.6,0a.622.622,0,0,1,.635.595c.024.321.008.643.008.964q0,16.331-.008,32.662c0,.4.088.53.5.5a12.52,12.52,0,0,1,1.647,0c.337.016.45-.064.442-.434C3.808,31.191,3.816,28.1,3.816,25V21.951A1.277,1.277,0,0,1,5.19,20.569H8.846a1.284,1.284,0,0,1,1.4,1.4c0,4.114.008,8.22-.008,12.334,0,.337.08.426.418.418.876-.024.876-.008.876-.876V11.827c0-1.077.466-1.543,1.535-1.543h3.455a1.3,1.3,0,0,1,1.43,1.446V34.148c0,.562,0,.562.538.562.747,0,.747,0,.747-.755V16.921a1.314,1.314,0,0,1,1.5-1.494h3.455a1.308,1.308,0,0,1,1.47,1.454c0,5.769.008,11.538-.008,17.315,0,.4.072.546.506.53.787-.04.779-.008.779-.8V6.565A1.292,1.292,0,0,1,28.362,5.15h3.576a1.292,1.292,0,0,1,1.446,1.438v27.6c0,.522,0,.522.538.522h1.205c.53,0,.836.241.828.659-.008.4-.3.627-.812.627H17.949ZM28.242,20.521q0,6.882-.008,13.772c0,.337.08.426.418.418q1.507-.036,3.013,0c.337.008.45-.064.442-.434-.016-3.551-.008-7.095-.008-10.646q0-8.413.008-16.825c0-.313-.08-.4-.394-.394q-1.507.036-3.013,0c-.354-.008-.466.072-.466.45C28.25,11.418,28.242,15.973,28.242,20.521Zm-11.57,2.611c0-3.72-.008-7.44.008-11.16,0-.345-.1-.418-.426-.41-1.02.024-2.033.024-3.053,0-.313-.008-.4.08-.394.394.016,2.386.008,4.765.008,7.151q0,7.605-.008,15.218c0,.329.1.394.4.386,1.02-.016,2.033-.024,3.053,0,.337.008.418-.08.418-.418C16.664,30.581,16.672,26.853,16.672,23.132ZM24.385,25.7V17.066c0-.177.064-.37-.249-.37-1.125.016-2.25.008-3.375,0-.169,0-.241.056-.233.233.008.3,0,.587,0,.884q0,8.256-.008,16.5c0,.321.1.394.4.394,1.02-.016,2.033-.024,3.053,0,.329.008.418-.08.418-.418C24.377,31.432,24.385,28.572,24.385,25.7Zm-15.427,2.6c0-2.033-.008-4.066.008-6.1,0-.281-.072-.362-.354-.354-1.061.016-2.113.016-3.174,0-.249,0-.345.056-.345.329q.012,6.1,0,12.2c0,.265.072.337.337.337q1.567-.024,3.134,0c.305.008.4-.064.4-.386C8.95,32.316,8.958,30.308,8.958,28.307Z"/>
  </g>
</svg>
