<svg xmlns="http://www.w3.org/2000/svg" viewBox="9640 3035 36 36.007">
  <defs>
    <style>
      .cls-1 {
        fill: #666;
      }
    </style>
  </defs>
  <path id="Path_682" data-name="Path 682" class="cls-1" d="M36,18.049V3.979A3.727,3.727,0,0,0,32.021,0H4.029A5.2,5.2,0,0,0,2.942.089,3.785,3.785,0,0,0,0,3.989v28.14A3.707,3.707,0,0,0,3.683,35.99c3.15.02,6.349.02,9.439.01h5.816a.9.9,0,0,0,.987-1c-.01-4.73-.01-8.946,0-12.885a.893.893,0,0,0-1.037-.987c-.583.01-1.185.01-1.767.01-.553,0-1.135,0-1.7.01.02-1.224.02-2.488,0-3.742.494.01.987,0,1.471,0,.632,0,1.293,0,1.935.01a1.056,1.056,0,0,0,.82-.257,1.1,1.1,0,0,0,.276-.829c0-.385,0-.77-.01-1.165-.01-1.086-.02-2.2.049-3.3A5.224,5.224,0,0,1,24.536,6.8a17.1,17.1,0,0,1,3.959-.03c.217.01.425.03.642.039v.77c0,.81,0,1.649.01,2.478-.79-.01-1.629-.02-2.478.02a2.7,2.7,0,0,0-2.854,2.913c-.01.563-.01,1.135-.01,1.7s0,1.145-.01,1.708a.892.892,0,0,0,1.017,1.007c.583-.01,1.185-.01,1.758,0,.731,0,1.491,0,2.241-.01h.049c-.188,1.145-.346,2.38-.484,3.742h-.02c-.513-.01-1.037-.01-1.54,0-.632,0-1.274,0-1.916-.01a1.077,1.077,0,0,0-.829.257,1.156,1.156,0,0,0-.276.859c.02,4.177.02,8.432,0,12.639a1.147,1.147,0,0,0,.276.849,1.092,1.092,0,0,0,.8.267h.03c1.53-.01,3.091-.01,4.6-.01H32.06a4.273,4.273,0,0,0,.987-.089A3.765,3.765,0,0,0,35.99,32.07v-10Zm-1.5,6.408v7.5a2.291,2.291,0,0,1-2.528,2.547H29.858c-1.491,0-3.031,0-4.552.01H25.3c.02-3.792.02-7.79,0-11.878.573.01,1.145.01,1.7.01.583,0,1.185,0,1.777.01a.948.948,0,0,0,1.057-.938c.118-1,.257-2.014.385-2.992l.207-1.6a1.11,1.11,0,0,0-.148-.908,1.094,1.094,0,0,0-.889-.267h-.938c-1.027,0-2.093-.01-3.14.01.02-.573.02-1.145.01-1.7V13.251c.01-1.244.395-1.629,1.659-1.649.948-.01,1.817-.01,2.646,0a1.049,1.049,0,0,0,.78-.257.981.981,0,0,0,.257-.741c-.02-1.442-.01-2.923,0-4.187a.874.874,0,0,0-.849-1.007c-.3-.02-.592-.039-.889-.069a18.729,18.729,0,0,0-4.641.03A6.73,6.73,0,0,0,18.5,11.71c-.089,1.116-.079,2.231-.069,3.308,0,.306.01.612.01.928v.01h-.02c-.632-.01-1.274-.01-1.9-.01h-1.57a1.006,1.006,0,0,0-.76.257,1.055,1.055,0,0,0-.257.75c.02,1.481.02,3.031,0,4.73a1.028,1.028,0,0,0,.247.731.963.963,0,0,0,.741.247c.563-.01,1.145-.01,1.7-.01.592,0,1.2,0,1.807-.01-.01,3.811-.01,7.692,0,11.878-2.429-.01-4.888-.01-7.277-.01-2.419,0-4.917,0-7.376-.01a2.213,2.213,0,0,1-2.271-2.3c-.01-10.012-.01-19.3,0-28.387a2.224,2.224,0,0,1,2.36-2.32H18.039c1.323,0,2.656,0,3.989.01,3.258.01,6.625.02,9.943-.03a2.549,2.549,0,0,1,1.837.711,2.633,2.633,0,0,1,.741,1.876C34.5,10.861,34.5,17.773,34.5,24.457Z" transform="translate(9640 3035)"/>
</svg>
