<svg xmlns="http://www.w3.org/2000/svg" viewBox="9158 3171 36 28.573">
  <defs>
    <style>
      .cls-1 {
        fill: #666;
      }
    </style>
  </defs>
  <g id="Group_336" data-name="Group 336" transform="translate(9158.006 3171)">
    <path id="Path_683" data-name="Path 683" class="cls-1" d="M293.046,203.626c-.1.4-.167.8-.3,1.186a5.615,5.615,0,1,1,.229-2.61.986.986,0,0,0,.07.229ZM291.877,203a4.447,4.447,0,1,0-4.438,4.465A4.447,4.447,0,0,0,291.877,203Z" transform="translate(-257.052 -180.063)"/>
    <path id="Path_684" data-name="Path 684" class="cls-1" d="M9.319,135.6a9.075,9.075,0,0,1,8.763,7.752c.053.352.062.7.1,1.046.044.536-.141.844-.527.87s-.615-.264-.633-.791a7.8,7.8,0,0,0-.791-3.243,7.93,7.93,0,0,0-14.924,2,9.561,9.561,0,0,0-.132,1.327.692.692,0,0,1-.246.6.549.549,0,0,1-.6.062.643.643,0,0,1-.334-.624,8.832,8.832,0,0,1,.8-3.612,9.032,9.032,0,0,1,6.354-5.177A10.133,10.133,0,0,1,9.319,135.6Z" transform="translate(0 -123.682)"/>
    <path id="Path_685" data-name="Path 685" class="cls-1" d="M53.342,9.668A4.834,4.834,0,1,1,58.158,4.8,4.841,4.841,0,0,1,53.342,9.668ZM49.65,4.8a3.678,3.678,0,1,0,7.356.053A3.678,3.678,0,0,0,49.65,4.8Z" transform="translate(-44.242)"/>
    <path id="Path_686" data-name="Path 686" class="cls-1" d="M198.625,9.758a4.83,4.83,0,1,1,4.851-4.808A4.852,4.852,0,0,1,198.625,9.758Zm3.683-4.834A3.669,3.669,0,1,0,198.651,8.6,3.693,3.693,0,0,0,202.307,4.924Z" transform="translate(-176.772 -0.09)"/>
    <path id="Path_687" data-name="Path 687" class="cls-1" d="M193.018,135.6a9.09,9.09,0,0,1,7.55,3.445.6.6,0,0,1,0,.879.566.566,0,0,1-.861-.114,9.6,9.6,0,0,0-1.652-1.564,7.934,7.934,0,0,0-8.736-.308l-.211.132c-.378.22-.712.176-.9-.123s-.088-.615.272-.853a8.47,8.47,0,0,1,1.582-.826A8.631,8.631,0,0,1,193.018,135.6Z" transform="translate(-171.587 -123.682)"/>
    <path id="Path_688" data-name="Path 688" class="cls-1" d="M318.367,234.616c.765,0,.765,0,.765-.765,0-.2-.009-.4.009-.6a.558.558,0,0,1,.563-.554.547.547,0,0,1,.571.545,9.018,9.018,0,0,1,.009,1.09c-.009.237.079.308.3.29.325-.018.659-.009.984,0a.583.583,0,1,1,.018,1.16c-.352.018-.7.009-1.055,0-.185-.009-.255.062-.246.246.009.325.009.659,0,.984-.009.439-.229.694-.571.694s-.571-.255-.58-.694q-.013-.475,0-.949c.009-.211-.053-.29-.272-.281-.316.018-.633.009-.949,0-.457-.009-.721-.246-.712-.606s.272-.554.712-.562Z" transform="translate(-289.325 -212.248)"/>
  </g>
</svg>
