<svg xmlns="http://www.w3.org/2000/svg" viewBox="9158 3035 36 45.964">
  <defs>
    <style>
      .cls-1 {
        fill: #666;
      }
    </style>
  </defs>
  <g id="Group_335" data-name="Group 335" transform="translate(9158 3035)">
    <path id="Path_672" data-name="Path 672" class="cls-1" d="M24.834,0H0V45.964H36V11.177Zm.444,2.61,8.112,8.112H25.278ZM1.527,44.426V1.527H23.74V12.249H34.462V44.415H1.527Z"/>
    <path id="Path_673" data-name="Path 673" class="cls-1" d="M84.487,249.038a.769.769,0,1,0,0-1.538H71.469a.769.769,0,1,0,0,1.538Z" transform="translate(-63.043 -220.695)"/>
    <path id="Path_674" data-name="Path 674" class="cls-1" d="M218.33,212.2h-5.361a.769.769,0,1,0,0,1.538h5.361a.769.769,0,1,0,0-1.538Z" transform="translate(-189.218 -189.218)"/>
    <path id="Path_675" data-name="Path 675" class="cls-1" d="M106.1,212.869a.772.772,0,0,0,.769.769h7.657a.769.769,0,0,0,0-1.538h-7.657A.779.779,0,0,0,106.1,212.869Z" transform="translate(-94.609 -189.129)"/>
    <path id="Path_676" data-name="Path 676" class="cls-1" d="M70.927,212.494a.758.758,0,0,0,0,1.083.758.758,0,0,0,1.083,0,.758.758,0,0,0,0-1.083A.811.811,0,0,0,70.927,212.494Z" transform="translate(-63.043 -189.296)"/>
    <path id="Path_677" data-name="Path 677" class="cls-1" d="M226.527,247.861a.771.771,0,0,0-.227.542.728.728,0,0,0,.227.542.758.758,0,0,0,1.083,0,.771.771,0,0,0,.227-.542.791.791,0,0,0-.227-.542A.8.8,0,0,0,226.527,247.861Z" transform="translate(-201.791 -220.829)"/>
    <path id="Path_678" data-name="Path 678" class="cls-1" d="M261.827,247.861a.771.771,0,0,0-.227.542.728.728,0,0,0,.227.542.758.758,0,0,0,1.083,0,.771.771,0,0,0,.227-.542.791.791,0,0,0-.227-.542A.8.8,0,0,0,261.827,247.861Z" transform="translate(-233.268 -220.829)"/>
    <path id="Path_679" data-name="Path 679" class="cls-1" d="M77.874,283.327c-1.679.877-2.242,2.545-2.448,4.278-.314-.271-.639-.531-.953-.8-.747-.628-1.841.444-1.083,1.083.715.6,1.43,1.2,2.144,1.8a.779.779,0,0,0,1.31-.542c.054-1.657.13-3.628,1.8-4.495C79.52,284.193,78.741,282.872,77.874,283.327Z" transform="translate(-65.213 -252.558)"/>
    <path id="Path_680" data-name="Path 680" class="cls-1" d="M132.849,309.883c-1.116-.076-2.751,1.646-3.617.119a.772.772,0,0,0-1.051-.271c-1.083.661-2.5,1.625-3.639.379-.671-.726-1.755.357-1.083,1.083,1.43,1.56,3.271,1.083,4.906.206a2.518,2.518,0,0,0,1.408.823c.607.119,3.087-.877,3.217-.693.574.791,1.906.022,1.321-.769A1.761,1.761,0,0,0,132.849,309.883Z" transform="translate(-109.899 -276.092)"/>
    <path id="Path_681" data-name="Path 681" class="cls-1" d="M72.178,66.793l.52-.368-.26-.574a2.394,2.394,0,0,0-1.116-1.17L69.7,63.847A3.893,3.893,0,0,0,71.3,61.7a1.778,1.778,0,0,0,.856-1.516v-.509a1.757,1.757,0,0,0-.606-1.332c-.271-1.451-1.256-3.022-4.245-3.022-.119,0-.227,0-.347.011A2.332,2.332,0,0,1,65.474,55a2.364,2.364,0,0,1-.412-.347.871.871,0,0,0-1.018-.271.853.853,0,0,0-.531.9c.022.195.054.422.108.682a2.3,2.3,0,0,1,.065.444c-.011.022-.054.119-.087.195-.054.119-.119.26-.195.444a5.5,5.5,0,0,0-.357,1.321,1.68,1.68,0,0,0-.6,1.3v.509a1.754,1.754,0,0,0,.856,1.516A3.967,3.967,0,0,0,64.9,63.836l-1.69.834a2.459,2.459,0,0,0-1.061,1.181l-.249.563.5.357a8.446,8.446,0,0,0,9.78.022Zm-8.166-.812,1.874-.921a1.15,1.15,0,0,0,.65-1.04V62.927l-.466-.195a2.448,2.448,0,0,1-1.4-1.776l-.108-.412-.4-.13a.271.271,0,0,1-.184-.238v-.509a.249.249,0,0,1,.141-.217l.357-.195.043-.4a4.375,4.375,0,0,1,.3-1.245A3.333,3.333,0,0,1,65,57.23a1.988,1.988,0,0,0,.217-.65,3.952,3.952,0,0,0,1.874.271,1.6,1.6,0,0,1,.227-.011c2.231,0,2.653,1.018,2.773,2.025l.043.4.357.184a.253.253,0,0,1,.141.227v.509a.248.248,0,0,1-.184.238l-.4.13-.108.412a2.428,2.428,0,0,1-1.4,1.776l-.466.195v1.094A1.146,1.146,0,0,0,68.7,65.06L70.553,66A6.961,6.961,0,0,1,64.012,65.981Z" transform="translate(-55.196 -48.436)"/>
  </g>
</svg>
