<svg xmlns="http://www.w3.org/2000/svg" viewBox="9366.473 4296 51.218 40">
  <defs>
    <style>
      .cls-1 {
        opacity: 0.178;
      }

      .cls-2 {
        fill: #fff;
      }
    </style>
  </defs>
  <g id="Group_388" data-name="Group 388" class="cls-1" transform="translate(9366.473 4296)">
    <path id="Path_782" data-name="Path 782" class="cls-2" d="M0,15.774c.1-.675.175-1.35.288-2.026A15.673,15.673,0,0,1,8.74,1.945,19.663,19.663,0,0,1,14.067.031c.2-.038.338-.063.438.175.588,1.413,1.2,2.813,1.813,4.251A13.127,13.127,0,0,0,13.167,5.5,8,8,0,0,0,9.078,9.36a7.9,7.9,0,0,0,.638,7.94.627.627,0,0,0,.625.288c3.839,0,7.665,0,11.5-.013.438,0,.588.075.588.563q-.019,10.654,0,21.295c0,.45-.113.575-.575.575Q10.941,39.989.013,39.995-.006,27.878,0,15.774Z" transform="translate(0 -0.007)"/>
    <path id="Path_783" data-name="Path 783" class="cls-2" d="M230.225,27.776V17.423A18.63,18.63,0,0,1,232.2,8.595a15.886,15.886,0,0,1,6.777-6.652,19.918,19.918,0,0,1,5.239-1.9c.35-.075.463.038.588.325.513,1.225,1.025,2.463,1.576,3.664.175.388.05.463-.288.538a11.413,11.413,0,0,0-4.326,1.863A7.791,7.791,0,0,0,239.453,16.5a1.739,1.739,0,0,0,1.838,1.1c3.614-.063,7.24-.025,10.854-.038.4,0,.488.1.488.5q-.019,10.729,0,21.457c0,.363-.063.475-.463.475q-10.747-.019-21.507,0c-.388,0-.463-.113-.463-.475C230.225,35.616,230.225,31.7,230.225,27.776Z" transform="translate(-201.415 -0.018)"/>
  </g>
</svg>
