<svg xmlns="http://www.w3.org/2000/svg" viewBox="10037.797 4437.753 51.218 40">
  <defs>
    <style>
      .cls-1 {
        opacity: 0.178;
      }

      .cls-2 {
        fill: #fff;
      }
    </style>
  </defs>
  <g id="Group_389" data-name="Group 389" class="cls-1" transform="translate(9993.797 4435.753)">
    <path id="Path_784" data-name="Path 784" class="cls-2" d="M838.945,36.533c-.1.675-.175,1.35-.288,2.026a15.652,15.652,0,0,1-8.453,11.8,18.8,18.8,0,0,1-5.339,1.913c-.2.038-.338.063-.438-.175-.588-1.413-1.2-2.813-1.813-4.251a13.127,13.127,0,0,0,3.151-1.038,8,8,0,0,0,4.089-3.864,7.9,7.9,0,0,0-.638-7.94.627.627,0,0,0-.625-.288c-3.839,0-7.665,0-11.5.013-.438,0-.588-.075-.588-.563q.019-10.654,0-21.295c0-.45.113-.575.575-.575q10.916.019,21.845.013Q838.958,24.448,838.945,36.533Z" transform="translate(-743.728 -10.3)"/>
    <path id="Path_785" data-name="Path 785" class="cls-2" d="M608.807,24.529v10.4a18.569,18.569,0,0,1-1.963,8.778,15.886,15.886,0,0,1-6.777,6.652,19.919,19.919,0,0,1-5.239,1.9.421.421,0,0,1-.588-.3c-.513-1.25-1.038-2.488-1.588-3.714-.162-.375-.025-.438.288-.5a11.909,11.909,0,0,0,4.326-1.863,7.835,7.835,0,0,0,2.3-10.116,1.694,1.694,0,0,0-1.751-1.075c-3.614.075-7.24.025-10.853.038-.4,0-.563-.05-.563-.525.025-7.14.012-14.267,0-21.407,0-.388.1-.5.488-.5q10.729.019,21.457,0c.413,0,.475.138.475.513Q608.8,18.683,608.807,24.529Z" transform="translate(-542.4 -10.3)"/>
  </g>
</svg>
