<svg xmlns="http://www.w3.org/2000/svg" viewBox="9640 2899 36 36">
  <defs>
    <style>
      .cls-1 {
        fill: #666;
      }
    </style>
  </defs>
  <g id="Group_334" data-name="Group 334" transform="translate(9640 2899)">
    <path id="Path_668" data-name="Path 668" class="cls-1" d="M0,17.991A18,18,0,1,1,17.982,36,18,18,0,0,1,0,17.991ZM17.964,34.56A16.56,16.56,0,1,0,1.44,17.955,16.59,16.59,0,0,0,17.964,34.56Z"/>
    <path id="Path_669" data-name="Path 669" class="cls-1" d="M111.578,257.436c5.274,3.69,10.5,3.627,15.795-.036v1.215c0,.18-.162.243-.27.333a11.957,11.957,0,0,1-6.318,2.565,12.189,12.189,0,0,1-7.9-1.782c-.18-.108-.351-.225-.522-.351C111.425,258.7,111.389,258.606,111.578,257.436Z" transform="translate(-101.453 -234.234)"/>
    <path id="Path_670" data-name="Path 670" class="cls-1" d="M84.538,116.394a.615.615,0,0,1-.252.324c-.72.738-.72.738-1.44.018-.7-.7-1.4-1.395-2.1-2.106-.2-.2-.315-.189-.5,0-.837.855-1.7,1.692-2.538,2.556-.2.207-.315.225-.531.009-.765-.774-.774-.765.009-1.539l3.051-3.051c.171-.18.279-.252.5-.027,1.2,1.215,2.412,2.421,3.618,3.627A1.872,1.872,0,0,1,84.538,116.394Z" transform="translate(-69.706 -102.318)"/>
    <path id="Path_671" data-name="Path 671" class="cls-1" d="M244.5,116.584a.884.884,0,0,1-.288.36c-.693.7-.693.7-1.377.009s-1.386-1.368-2.061-2.07c-.252-.27-.4-.234-.639.018-.81.837-1.656,1.647-2.466,2.493-.207.216-.324.207-.531,0-.765-.765-.774-.756-.018-1.512,1.026-1.026,2.061-2.052,3.078-3.087.18-.18.288-.234.5-.018,1.2,1.215,2.412,2.421,3.618,3.627A.853.853,0,0,1,244.5,116.584Z" transform="translate(-215.272 -102.499)"/>
  </g>
</svg>
