<svg xmlns="http://www.w3.org/2000/svg" viewBox="9158 2899 36 28.582">
  <defs>
    <style>
      .cls-1 {
        fill: #666;
      }
    </style>
  </defs>
  <g id="icon-leaderboard" transform="translate(9158 2899)">
    <path id="Path_662" data-name="Path 662" class="cls-1" d="M0,8.033a.967.967,0,0,1,1-.545c3.375.009,6.75,0,10.125.009.316,0,.413-.079.4-.4-.018-2.039-.009-4.078-.009-6.117,0-.747.229-.976.958-.976H23.52c.729,0,.958.229.958.976,0,3.445.009,6.891-.009,10.336,0,.308.079.387.387.387q5.063-.013,10.125-.009c.8,0,1.02.229,1.02,1.028V27.554c0,.809-.211,1.02-1.02,1.02q-16.98,0-33.961.009A1.021,1.021,0,0,1,0,28.072Q0,18.053,0,8.033Zm12.955,6.258q0,6.236-.009,12.472c0,.3.062.4.387.4,3.12-.009,6.231-.018,9.352,0,.325,0,.378-.105.378-.4q-.013-12.472,0-24.952c0-.3-.062-.4-.387-.4-3.12.009-6.231.018-9.352,0-.325,0-.378.105-.378.4Q12.959,8.06,12.955,14.291Zm-1.433,3.753q0-4.377.009-8.745c0-.29-.07-.369-.369-.369q-4.693.013-9.378,0c-.3,0-.36.1-.36.378q.013,8.728,0,17.464c0,.308.079.387.387.387,3.111-.009,6.231-.018,9.343,0,.325,0,.378-.105.378-.4C11.522,23.854,11.522,20.953,11.522,18.044Zm23.045,2.1c0-2.206-.009-4.4.009-6.609,0-.316-.079-.413-.4-.413-3.1.009-6.214.009-9.316,0-.308,0-.387.079-.387.387q.013,6.631,0,13.254c0,.3.062.4.378.387,3.1-.018,6.214-.009,9.316,0,.308,0,.413-.07.413-.4C34.559,24.557,34.567,22.351,34.567,20.145Z"/>
    <path id="Path_663" data-name="Path 663" class="cls-1" d="M193,124.569a1.953,1.953,0,0,1-.325.149.438.438,0,0,1-.492-.185.38.38,0,0,1-.009-.519,10.594,10.594,0,0,1,1-.984.47.47,0,0,1,.765.281,1.112,1.112,0,0,1,.026.246v5.229c0,.264-.053.5-.352.571-.352.088-.589-.123-.6-.527-.009-.6,0-1.2,0-1.793C193,126.23,193,125.43,193,124.569Z" transform="translate(-175.198 -112.115)"/>
    <path id="Path_664" data-name="Path 664" class="cls-1" d="M162.7,27.959c.571,0,1.143-.009,1.723,0,.519.009.817.281.809.721s-.316.7-.826.7c-1.16.009-2.32.009-3.472,0a.734.734,0,0,1-.835-.7c-.009-.431.308-.712.817-.721C161.5,27.951,162.1,27.959,162.7,27.959Z" transform="translate(-146.027 -25.499)"/>
    <path id="Path_665" data-name="Path 665" class="cls-1" d="M231.183,29.45a.97.97,0,0,1-.809-.246.677.677,0,0,1-.149-.65c.1-.413.457-.571,1.222-.527a.707.707,0,0,1,.729.615.7.7,0,0,1-.58.791C231.464,29.45,231.324,29.441,231.183,29.45Z" transform="translate(-209.966 -25.557)"/>
    <path id="Path_666" data-name="Path 666" class="cls-1" d="M51.113,168.106h2.338a2.848,2.848,0,0,1,.387.018.414.414,0,0,1,.4.448.4.4,0,0,1-.4.457c-1.125.044-2.25.044-3.366,0-.3-.018-.4-.246-.387-.527a2.1,2.1,0,0,1,.694-1.485,7.294,7.294,0,0,1,1.459-1.028,3.876,3.876,0,0,0,.659-.466,1.155,1.155,0,1,0-1.881-1.028c-.026.211-.044.422-.272.536a.454.454,0,0,1-.659-.483,1.987,1.987,0,0,1,1.2-1.8,1.947,1.947,0,0,1,2.092.193,2.084,2.084,0,0,1,.176,3.261,9.771,9.771,0,0,1-1.608,1.125A1.954,1.954,0,0,0,51.113,168.106Z" transform="translate(-45.69 -148.243)"/>
    <path id="Path_667" data-name="Path 667" class="cls-1" d="M317.009,196.812a2.248,2.248,0,0,1-1.582-.642c-.246-.237-.29-.483-.105-.677a.464.464,0,0,1,.686-.035,1.812,1.812,0,0,0,.6.36,1.4,1.4,0,0,0,1.767-.976,1.388,1.388,0,0,0-1.081-1.723c-.114-.026-.237-.026-.352-.044a.459.459,0,0,1-.035-.888c.07-.018.141-.018.211-.035a.466.466,0,0,0,.325-.633.453.453,0,0,0-.65-.2c-.088.044-.158.1-.246.141a.406.406,0,0,1-.589-.1.457.457,0,0,1,.053-.606,1.4,1.4,0,0,1,1.45-.36,1.362,1.362,0,0,1,.835,1.819.316.316,0,0,0,.123.457,2.3,2.3,0,0,1-1.406,4.14Z" transform="translate(-287.504 -173.6)"/>
  </g>
</svg>
