<svg xmlns="http://www.w3.org/2000/svg" viewBox="9640 3171 36 25.911">
  <defs>
    <style>
      .cls-1 {
        fill: #666;
      }
    </style>
  </defs>
  <path id="Path_689" data-name="Path 689" class="cls-1" d="M18,0H32.985A2.858,2.858,0,0,1,36,3.015V22.9a2.848,2.848,0,0,1-3.015,3.015H3.024a2.832,2.832,0,0,1-3.024-3V2.988A2.89,2.89,0,0,1,2.97,0ZM34.506,2.259c-1.521,1.332-2.934,2.565-4.347,3.8q-4.59,4.009-9.18,8.019a3.889,3.889,0,0,1-5.256.063Q8.933,8.442,2.142,2.745c-.171-.144-.351-.459-.567-.351-.18.09-.135.432-.135.675v19.8c0,.144-.081.351.072.414.18.072.261-.153.369-.261q3.834-3.807,7.659-7.614c.72-.711.7-.7,1.422-.018.252.243.252.369,0,.621-2.709,2.682-5.4,5.373-8.1,8.064-.1.1-.3.18-.225.342.063.135.243.063.369.063H32.931c.144,0,.342.072.414-.081s-.135-.243-.234-.342q-3.861-3.875-7.731-7.731c-.63-.63-.6-.6-.009-1.269.324-.36.5-.288.8.018q3.942,3.982,7.92,7.929c.117.117.207.288.405.306C34.506,16.317,34.506,9.351,34.506,2.259Zm-1.314-.792H2.9c.1.09.153.144.207.189q2.12,1.782,4.23,3.564,4.563,3.834,9.126,7.668a2.737,2.737,0,0,0,3.69-.027c1.728-1.485,3.438-3,5.157-4.491C27.918,6.084,30.528,3.8,33.192,1.467Z" transform="translate(9640 3171)"/>
</svg>
