<svg xmlns="http://www.w3.org/2000/svg" viewBox="9156.999 3307 36.001 37.974">
  <defs>
    <style>
      .cls-1 {
        fill: #666;
      }
    </style>
  </defs>
  <g id="Group_337" data-name="Group 337" transform="translate(9157.016 3307)">
    <path id="Path_690" data-name="Path 690" class="cls-1" d="M31.876,7.345V1.226A1.107,1.107,0,0,1,32.917,0a1.1,1.1,0,0,1,1.051,1.206c.01,1.586,0,3.181,0,4.767,0,1.508-.01,3.016.01,4.524.01.428-.136.564-.555.555-3.094-.019-6.2-.01-9.291-.01-.769,0-1.206-.389-1.206-1.022a1.085,1.085,0,0,1,1.2-1.07c1.78-.01,3.57,0,5.351-.01.214,0,.535.117.632-.078.107-.214-.2-.37-.341-.525a15.117,15.117,0,0,0-9.291-5.049A15.739,15.739,0,0,0,2.33,16.237a16.7,16.7,0,0,0-.2,2.413c-.019.885-.457,1.4-1.1,1.381-.691-.019-1.07-.564-1.041-1.479A18.186,18.186,0,0,1,15.454,1.2,17.658,17.658,0,0,1,29.959,5.584c.331.282.652.593.953.9s.564.613.846.914A.6.6,0,0,0,31.876,7.345Z" transform="translate(0)"/>
    <path id="Path_691" data-name="Path 691" class="cls-1" d="M24.526,195.557a15.289,15.289,0,0,0,8.678,5.36,15.747,15.747,0,0,0,13.64-3.113,15.329,15.329,0,0,0,5.691-10.283c.107-.759.019-1.527.165-2.277a1.054,1.054,0,0,1,.992-.846,1.037,1.037,0,0,1,1.022.807,1.921,1.921,0,0,1,.058.574,17.2,17.2,0,0,1-1.391,6.47c-2.743,6.11-7.394,9.9-14.029,10.964A18.075,18.075,0,0,1,23,197.016c-.165.195-.1.379-.1.545-.01,1.829,0,3.668,0,5.5a3.29,3.29,0,0,1-.029.535,1.037,1.037,0,0,1-2.053-.126c-.01-.1-.01-.195-.01-.292,0-3.065.01-6.129-.01-9.194,0-.467.136-.613.6-.613,3.065.019,6.129.01,9.194.01.807,0,1.265.37,1.265,1.022s-.486,1.07-1.294,1.08c-1.819.01-3.629,0-5.448,0A1.1,1.1,0,0,0,24.526,195.557Z" transform="translate(-18.791 -166.458)"/>
  </g>
</svg>
