<svg xmlns="http://www.w3.org/2000/svg" viewBox="9640 3307 36 32.336">
  <defs>
    <style>
      .cls-1 {
        fill: #666;
      }
    </style>
  </defs>
  <g id="Group_338" data-name="Group 338" transform="translate(9640 3307)">
    <path id="Path_692" data-name="Path 692" class="cls-1" d="M31.728,10.983a.607.607,0,0,0-.608.608V31.114H1.222V1.222h29.9v.608a.608.608,0,1,0,1.215,0V0H0V32.336H32.336V11.591A.607.607,0,0,0,31.728,10.983Z"/>
    <path id="Path_693" data-name="Path 693" class="cls-1" d="M143.784,37.9a.6.6,0,0,0-.86,0L124.435,56.387l-7.971-7.971a.608.608,0,0,0-.86.86l8.4,8.4a.623.623,0,0,0,.433.181.607.607,0,0,0,.433-.181l18.909-18.909A.613.613,0,0,0,143.784,37.9Z" transform="translate(-107.963 -35.286)"/>
  </g>
</svg>
